<svg width="38" height="38" viewBox="0 0 38 38" fill="none" xmlns="http://www.w3.org/2000/svg">
<path d="M15.5654 0.0478462C15.2 0.178573 14.8999 0.514304 14.4067 1.34026C13.9611 2.09194 13.8422 2.26724 13.6283 2.49601C13.1648 2.98624 12.8707 2.98624 11.4386 2.50492C10.4493 2.17513 10.3601 2.15136 10.0125 2.15136C9.68272 2.15136 9.50446 2.22267 9.30837 2.4247C9.04988 2.69507 8.9251 3.02189 8.76763 3.8419C8.56857 4.87287 8.49132 5.17294 8.35762 5.44034C8.27443 5.60969 8.10211 5.78498 7.94167 5.8652C7.67131 6.00187 7.4871 6.02564 6.47693 6.05535C5.45192 6.08506 5.18452 6.11477 4.89335 6.21876C4.56059 6.34057 4.39124 6.49804 4.2724 6.79812C4.23081 6.90508 4.22189 7.02392 4.22189 7.40719C4.22189 7.81423 4.23675 7.97169 4.33182 8.52134C4.46552 9.3057 4.48929 9.62658 4.44472 9.90586C4.35262 10.4436 4.07037 10.6575 2.82252 11.1329C2.47787 11.2607 2.12432 11.4003 2.03518 11.4389C1.59547 11.635 1.22408 11.9589 1.13198 12.2233C0.992338 12.6363 1.12306 13.079 1.6846 14.0654C2.20453 14.9775 2.31149 15.2419 2.31446 15.6222C2.31744 15.8391 2.30555 15.8955 2.23722 16.0233C2.10055 16.2847 1.82721 16.5729 1.18843 17.1226C0.519937 17.699 0.252541 17.9872 0.0980453 18.2932C0.0118843 18.4655 0 18.5131 0 18.727C0 18.9409 0.0118843 18.9884 0.0980453 19.1607C0.252541 19.4668 0.519937 19.755 1.18843 20.3313C2.58186 21.5346 2.61751 21.7278 1.72322 23.3202C1.21814 24.2235 1.08444 24.5532 1.08444 24.9098C1.08444 25.1564 1.15278 25.3376 1.31618 25.5218C1.57467 25.81 1.85395 25.9556 2.80766 26.3181C4.09116 26.8023 4.35856 27.0073 4.44769 27.5778C4.48929 27.8541 4.45661 28.2166 4.31697 29.0247C4.23675 29.4822 4.22189 29.6486 4.22189 30.0468C4.21892 30.4746 4.22783 30.5399 4.28726 30.6915C4.42392 31.0302 4.73589 31.2382 5.23503 31.3243C5.39547 31.3511 5.86787 31.3808 6.46208 31.3986C7.4871 31.4283 7.66833 31.4521 7.94167 31.5887C8.0932 31.666 8.26849 31.8413 8.34574 31.9898C8.48538 32.2572 8.55371 32.5187 8.73198 33.4516C8.96075 34.6371 9.14496 35.0263 9.5817 35.2283C9.71837 35.2907 9.78671 35.3026 10.0125 35.3026C10.3601 35.3026 10.4522 35.2788 11.4386 34.949C12.8677 34.4677 13.1618 34.4677 13.6134 34.946C13.8422 35.1867 13.9551 35.3531 14.4067 36.1137C14.7781 36.7346 15.0277 37.0644 15.2713 37.2457C15.607 37.4923 15.9339 37.516 16.3439 37.3259C16.6142 37.2011 16.8371 37.0466 17.3629 36.6128C17.9661 36.1196 18.1919 35.9562 18.4355 35.8285C18.7415 35.671 18.9495 35.6264 19.1694 35.6769C19.517 35.7542 19.8111 35.9384 20.5539 36.5475C21.2907 37.1506 21.5314 37.308 21.879 37.412C22.0869 37.4744 22.2444 37.4715 22.4346 37.4061C22.797 37.2783 23.1001 36.9426 23.5933 36.1137C24.0449 35.3531 24.1578 35.1867 24.3866 34.946C24.8382 34.4677 25.1323 34.4677 26.5614 34.949C27.5507 35.2788 27.6399 35.3026 27.9875 35.3026C28.3173 35.3026 28.4955 35.2313 28.6916 35.0292C28.9501 34.7589 29.0749 34.4321 29.2324 33.612C29.4344 32.5573 29.5384 32.183 29.6869 31.9364C29.7761 31.7937 29.9187 31.66 30.0583 31.5887C30.3287 31.4521 30.5129 31.4283 31.5231 31.3986C32.046 31.3837 32.5719 31.354 32.6907 31.3362C33.2344 31.256 33.5375 31.0718 33.7038 30.7182C33.7751 30.5607 33.7811 30.5281 33.7781 30.0616C33.7781 29.6457 33.7633 29.4882 33.683 29.0247C33.5434 28.2166 33.5107 27.8541 33.5523 27.5778C33.6414 27.0073 33.9118 26.7994 35.1923 26.3181C36.1461 25.9556 36.4253 25.81 36.6838 25.5218C36.8472 25.3376 36.9156 25.1564 36.9156 24.9098C36.9156 24.5532 36.7819 24.2235 36.2768 23.3202C35.5548 22.0308 35.5102 21.7099 35.9737 21.1246C36.1223 20.9374 36.2768 20.7919 37.0611 20.1115C37.5157 19.7193 37.7772 19.4192 37.9138 19.137C37.9881 18.9914 38 18.929 38 18.727C38 18.5249 37.9881 18.4625 37.9138 18.317C37.7772 18.0347 37.5157 17.7346 37.0611 17.3425C36.2768 16.6621 36.1223 16.5165 35.9737 16.3293C35.7242 16.0144 35.6826 15.9134 35.6855 15.6222C35.6885 15.2419 35.7955 14.9775 36.3154 14.0654C36.8799 13.073 37.0106 12.6392 36.868 12.2233C36.7759 11.9589 36.4045 11.635 35.9648 11.4389C35.8757 11.4003 35.5221 11.2607 35.1775 11.1299C33.9267 10.6575 33.6474 10.4466 33.5553 9.90586C33.5107 9.62955 33.5345 9.3057 33.6682 8.52134C33.7603 7.97466 33.7781 7.81423 33.7781 7.40719C33.7781 7.02095 33.7692 6.90508 33.7276 6.79812C33.6088 6.49804 33.4394 6.34057 33.1066 6.21876C32.8155 6.11477 32.5481 6.08506 31.5231 6.05535C30.5129 6.02564 30.3287 6.00187 30.0583 5.8652C29.9187 5.7939 29.7761 5.6602 29.6869 5.51759C29.5384 5.27099 29.4344 4.89663 29.2324 3.8419C29.0749 3.02189 28.9501 2.69507 28.6916 2.4247C28.4926 2.21673 28.3173 2.15136 27.9726 2.15434C27.625 2.15434 27.5151 2.18405 26.5168 2.51978C25.1353 2.98624 24.8322 2.98326 24.3717 2.49601C24.1578 2.26724 24.0389 2.09194 23.5933 1.34026C23.2219 0.719308 22.9723 0.389519 22.7287 0.208284C22.393 -0.0383148 22.0661 -0.0620834 21.6561 0.128065C21.3858 0.25285 21.1629 0.407346 20.6371 0.841122C20.0339 1.33432 19.8081 1.49773 19.5645 1.62548C18.9079 1.96419 18.6019 1.85426 17.3629 0.841122C16.8341 0.404375 16.6142 0.25285 16.3409 0.125094C16.0527 -0.00860412 15.7912 -0.0353438 15.5654 0.0478462Z" fill="#EA0000"/>
<path d="M9.62869 18.1199L10.2843 19.9411L8.93716 20.426L6.94032 14.8794L9.43507 13.9812C10.0837 13.7477 10.6466 13.711 11.1239 13.8711C11.6011 14.0312 11.9505 14.419 12.172 15.0344C12.3935 15.6497 12.3785 16.1906 12.1268 16.6569C11.8751 17.1233 11.4249 17.4732 10.7763 17.7067L9.62869 18.1199ZM9.25447 17.0804L10.2357 16.7271C10.3799 16.6752 10.4949 16.6119 10.5807 16.5372C10.672 16.4605 10.7352 16.3751 10.7703 16.2811C10.8053 16.187 10.8197 16.0879 10.8135 15.9837C10.8109 15.8719 10.7896 15.7606 10.7497 15.6497C10.7018 15.5167 10.6432 15.4062 10.574 15.3184C10.5104 15.2286 10.4341 15.1559 10.3452 15.1002C10.2562 15.0446 10.1521 15.0163 10.0328 15.0154C9.91906 15.0125 9.79011 15.037 9.64597 15.0889L8.6647 15.4422L9.25447 17.0804ZM14.4594 18.438L12.4626 12.8913L13.8097 12.4063L15.4264 16.8969L17.838 16.0287L18.2182 17.0848L14.4594 18.438ZM18.5898 16.951L18.6885 10.6499L20.1604 10.12L24.1198 14.9602L22.7394 15.4571L19.085 10.8641L19.721 10.5694L19.8621 16.493L18.5898 16.951ZM19.3395 15.3284L19.2577 14.2401L21.7774 13.3329L22.2584 14.2776L19.3395 15.3284ZM25.6247 14.4184L24.7624 12.0235L21.5239 9.62918L23.1788 9.03342L25.7138 11.1174L25.0901 11.3419L25.5737 8.17121L26.9126 7.68922L26.0381 11.94L25.9719 11.1559L26.9718 13.9334L25.6247 14.4184ZM12.5924 29.7384L10.5956 24.1918L11.7432 23.7786L15.9786 26.5937L15.8788 27.569L14.1963 22.8954L15.4354 22.4494L17.4322 27.996L16.4177 28.3613L12.1503 25.6141L12.2478 24.8933L13.8315 29.2923L12.5924 29.7384ZM21.1217 26.7993C20.5729 26.9969 20.0592 27.066 19.5807 27.0065C19.1001 26.9416 18.6693 26.7366 18.2884 26.3915C17.9129 26.0445 17.6075 25.5439 17.3719 24.8897C17.0307 23.9417 17.0106 23.1379 17.3117 22.4784C17.6129 21.8189 18.1903 21.3355 19.0441 21.0281C19.5929 20.8305 20.1076 20.7642 20.5882 20.8292C21.0723 20.8866 21.501 21.0861 21.8745 21.4276C22.2479 21.7691 22.5534 22.2697 22.7909 22.9294C23.1342 23.883 23.1552 24.6895 22.8541 25.349C22.5585 26.0065 21.981 26.4899 21.1217 26.7993ZM20.7236 25.6933C21.0063 25.5915 21.2237 25.4475 21.3759 25.2612C21.5335 25.0729 21.6154 24.8305 21.6213 24.5341C21.6309 24.23 21.5578 23.8618 21.4021 23.4294C21.2445 22.9914 21.0661 22.6611 20.8669 22.4385C20.6733 22.2138 20.4568 22.082 20.2173 22.043C19.9813 21.9964 19.722 22.024 19.4392 22.1258C19.1565 22.2276 18.9391 22.3716 18.787 22.5579C18.6348 22.7442 18.553 22.9866 18.5415 23.285C18.5355 23.5815 18.6123 23.9515 18.772 24.395C18.9297 24.833 19.1053 25.1643 19.2989 25.3889C19.496 25.606 19.7126 25.7379 19.9485 25.7844C20.1825 25.8255 20.4408 25.7951 20.7236 25.6933ZM25.589 25.0595L22.0371 20.0727L23.509 19.5428L26.0328 23.5001L25.8082 23.581L25.5048 18.8243L26.5443 18.4501L29.3884 22.3579L29.1389 22.4477L28.5484 17.7286L30.0203 17.1987L30.4621 23.3052L29.1316 23.7842L26.4721 20.2327L26.7133 20.1459L26.9196 24.5805L25.589 25.0595Z" fill="white"/>
</svg>
