<?xml version="1.0" encoding="utf-8"?>
<svg xmlns="http://www.w3.org/2000/svg" fill="none" height="53" width="158">
  <g clip-path="url(#a)">
    <g filter="url(#b)">
      <path d="M157.002 41.853c.021-.246.031-.355-.059-.774-.056-.252-.106-.531-.152-.59a.8.8 0 0 0-.451-.34c-.714-.227-1.374-.806-2.054-1.743a440 440 0 0 1-3.234-5.057c-.487-.783-1.293-2.033-1.756-2.814-.467-.755-.868-1.393-.889-1.422 0 0 .627-.825 1.809-2.234.988-1.205 2.059-2.513 2.367-2.871.793-.975 1.127-1.331 1.648-1.808.659-.602 1.166-.915 1.766-1.139.364-.105.497-.204.59-.416.122-.236.097-.54-.099-1.49a1 1 0 0 0-.291-.438 1 1 0 0 0-.223-.074c-.299-.025-7.159.07-7.262.089a.57.57 0 0 0-.385.351c-.059.105-.066.186-.056.38-.026.3.127 1.164.216 1.309l.065.115-.086.13c-.293.47-.745 1.007-2.916 3.648-1.273 1.566-1.549 1.871-1.571 1.814-.008-.192.042-2.55.077-2.959.109-1.28.529-2.04 1.317-2.412.5-.232.574-.5.408-1.53-.082-.502-.104-.558-.267-.71-.094-.09-.144-.095-.292-.135-.101-.009-2.047-.012-4.3.014-3.162.03-4.15.055-4.203.078-.132.07-.297.221-.336.383-.064.159-.046.545.032 1.1.1.613.141.727.46.837.39.17.741.503.934.904.237.487.255.57.204 2.05-.035.408-.044 1.698-.068 2.877-.103 4.165-.259 10.138-.278 10.658-.063.736-.254 1.488-.547 1.957-.174.26-.501.534-.738.65-.29.14-.398.213-.484.343-.122.237-.132.648.018 1.567a.7.7 0 0 0 .243.405c.144.095.294.108 3.253.088 5.947-.037 5.439-.026 5.654-.172.296-.221.329-.603.142-1.663-.048-.306-.162-.48-.382-.554a1.75 1.75 0 0 1-1.017-1.104c-.145-.397-.154-.288-.026-3.847l.055-.654.232-.337c.14-.18.279-.333.305-.33.024.002 2.85 4.529 2.98 4.787.019.057.176.317.33.578.153.26.307.548.348.661.087.172.087.172.008.193-.127.017-.316.138-.426.238-.083.103-.112.128-.135.4-.024.273-.031.355.033.8.053.279.104.558.15.617.086.172.257.269.482.288.174.015 8.143-.04 8.323-.052a.7.7 0 0 0 .452-.263c.083-.102.088-.157.111-.43zm-.58-.6s-.108.074-.16.097c-.101-.009-8.122.069-8.297.054-.101-.009-.151-.013-.221-.102-.069-.06-.065-.115-.075-.308.026-.3.03-.355.344-.465.316-.137.401-.267.331-.63-.066-.418-.338-1.073-.761-1.74-.108-.202-.221-.377-.24-.433.003-.028-.687-1.13-1.463-2.406a131 131 0 0 1-1.555-2.523c-.065-.115-.135-.203-.135-.203s-.225.255-.475.535c-.31.386-.454.566-.461.647-.021.246-.122 3.807-.09 4.03.051 1.459.482 2.347 1.335 2.723.292.135.314.164.286.491-.021.245-.021.245-.129.319-.055.05-.131.07-.258.087-.433.018-7.945.057-8.096.044-.201-.017-.269-.105-.273-.353.003-.33.035-.408.298-.523.445-.182.804-.535 1.074-1.034.3-.55.419-1.062.494-1.934.058-.682.196-6.738.305-11.864.011-1.015.051-2.082.052-2.384.051-1.78-.388-2.862-1.359-3.33-.315-.165-.363-.196-.335-.523.019-.218.021-.246.129-.319a.27.27 0 0 1 .157-.069s1.846-.006 4.048-.035 4.074-.034 4.175-.025c.151.013.175.015.245.103.067.088.064.116.072.336-.023.273-.03.354-.32.467-.789.371-1.227 1.075-1.433 2.293-.063.434-.075.57-.125 2.653-.028 1.205-.047 2.302-.061 2.465-.014.164.003.276.003.276s.842-.999 1.831-2.205c2.936-3.563 3.217-3.924 3.515-4.447.36-.656.362-.957-.01-1.072-.172-.042-.244-.103-.281-.271-.048-.306.047-.545.202-.587.027.002 1.621-.025 3.522-.054 1.898-.028 3.54-.024 3.617-.018.148.013.174.015.241.104.07.088.066.143.08.254-.032.381-.037.436-.372.517-1.036.295-2.018 1.117-3.371 2.758-.227.282-1.41 1.718-2.623 3.179l-2.198 2.666.243.405c.358.553 1.492 2.353 3.765 5.954 2.201 3.512 2.247 3.57 2.703 4.16.639.796 1.162 1.198 1.849 1.45.319.109.365.168.337.495-.017.191-.021.246-.105.32z" fill="#fff"/>
      <path d="M136.019 35.333a3.5 3.5 0 0 0-.102-.585c-.038-.14-.225-.322-.346-.387-.146-.067-.502-.043-.683-.004-.182.067-.267.17-.473.508-.416.734-1.043 1.256-1.986 1.642-.813.342-1.84.528-3.056.56-.557.007-1.712-.092-2.157-.213-2.176-.572-3.643-2.044-4.094-4.17-.092-.392-.101-.585-.075-1.187.025-1.48.402-2.93.999-4.005.3-.551.584-.911 1.075-1.335 1.042-.954 2.058-1.306 4.19-1.397.584-.032 1.89.08 2.36.203.99.25 1.767.62 2.307 1.105.26.215.599.683.752.97.17.373.289.465.615.493.126.011.276.024.354.003a.63.63 0 0 0 .503-.56c.023-.273-.349-5.687-.428-6.243-.113-.751-.136-.78-.923-1.04a21 21 0 0 0-2.748-.677c-1.821-.294-3.74-.322-5.559-.04-1.359.213-2.738.67-3.827 1.291-1.725.95-3.053 2.29-4.01 4.02-.506.89-.829 1.714-1.116 2.706-.475 1.716-.62 3.406-.463 5.424.154 1.744.331 2.638.758 3.855 1.315 3.546 4.321 5.947 8.41 6.628.597.107 2.183.188 2.79.186 1.851-.06 3.235-.27 5.125-.795.854-.228.881-.253 1.019-.379.192-.175.187-.12.421-2.572.133-1.252.267-2.53.297-2.885l.054-.627-.033-.497zm-.462.372c-.04.464-.201 1.768-.322 2.883-.241 2.231-.234 2.15-.394 2.246-.158.068-1.527.417-2.121.558-2.5.554-5.033.61-7.091.13-4.984-1.142-8.075-4.923-8.235-10.155a15 15 0 0 1 .461-4.216c1.038-3.865 3.7-6.601 7.426-7.599 1.242-.332 2.848-.496 4.414-.47a29 29 0 0 1 2.656.283c.871.157 1.811.403 2.596.69.367.142.44.176.451.341-.005.055.069.967.131 2.016s.133 2.29.167 2.788c.058.801.048.91.016.99-.062.132-.139.153-.367.16-.251-.021-.352-.03-.434-.257-.554-1.2-1.799-2.022-3.587-2.396-.772-.148-1.856-.187-2.899-.112-.993.08-1.586.22-2.267.491-1.758.755-2.882 2.36-3.362 4.736-.097.54-.22 1.683-.189 2.208.046 2.722 1.213 4.745 3.354 5.726.778.369 1.399.505 2.428.594a9 9 0 0 0 2.126-.037c1.329-.16 2.585-.656 3.323-1.306.354-.3.553-.557.791-.976.211-.394.239-.419.567-.418.201.018.201.018.294.108l.092.117-.073.846z" fill="#fff"/>
      <path d="M118.535 20.576c.021-.246-.064-1.022-.101-1.19-.038-.14-.177-.29-.296-.382a.7.7 0 0 0-.246-.076c-.326-.028-8.119.042-8.222.06a.67.67 0 0 0-.382.325c-.064.159-.094.513-.065 1.065.04.717.106.832.521 1.005.608.273.989.854 1.145 1.692.015.11.029.249.02.358-.01.11-.026 1.48-.063 3.098-.064 5.485-.105 7.157-.124 7.375a4.3 4.3 0 0 1-.493 1.632c-.27.499-.773 1.06-1.226 1.322-.452.263-1.022.434-1.609.493-1.271.083-2.118-.072-2.863-.52-.577-.353-1.08-.972-1.323-1.68-.182-.537-.195-.676-.191-1.91.004-.632.039-2.826.04-4.912.027-2.085.027-3.87.037-3.978-.023-.332.07-1.12.121-1.418.083-.377.264-.718.462-.976.199-.257.389-.406.706-.57.343-.163.43-.293.458-.62s-.021-1.237-.084-1.38a.55.55 0 0 0-.135-.204c-.187-.18.041-.189-4.436-.163-2.934.023-4.148.028-4.228.076-.155.041-.295.194-.361.38-.035.107-.044.216-.04.766-.006.356.017.688.037.744.032.223.173.345.463.507.556.295.9.709 1.097 1.357.077.282.145.672.129.863-.007.082-.03 1.233-.041 2.55s-.027 3.567-.052 5.047c-.024 2.36-.028 3.293.001 3.542-.005.055-.007.082-.082.076-.301-.026-.489.095-.731.568-.209.367-.495.754-.74.953-.625.522-1.518.912-2.596 1.094-.563.089-.691.105-2.79.116-1.95.025-1.974.023-1.968-.059.003-.027.012-1.619.022-3.513s.038-4.884.037-6.641c.023-2.936.023-3.238.067-3.756.054-.627.125-.868.281-1.211.218-.476.496-.781.942-.963.448-.208.484-.342.468-1.332-.022-.634-.036-.772-.225-.926-.07-.06-.169-.097-.241-.13-.126-.011-7.992.025-8.245.031-.28.03-.477.26-.508.615-.037.436-.032 1.26.032 1.403a.59.59 0 0 0 .349.36c.515.181.925.711 1.122 1.36.2.62.185.208.117 7.807-.022 3.815-.055 7.162-.08 7.462-.052.6-.08.926-.265 1.322-.225.558-.559.913-1.034 1.147-.237.117-.347.217-.416.43-.007.082-.025.3-.042.793.008.797.024.908.288 1.069l.169.096.582-.004c1.314.003 10.624-.074 12.85-.074 2.63-.02 2.528-.002 2.75-.23a.42.42 0 0 0 .12-.237c.01-.109.287-3.654.28-4.15l.02-.244.125.312a7.3 7.3 0 0 0 1.86 2.494c.893.791 1.91 1.318 3.14 1.726 1.649.526 3.782.71 5.551.423 2.228-.33 3.901-.982 5.174-1.97 1.462-1.138 2.451-2.947 2.815-5.14.109-.677.137-1.004.157-3.61.071-4.387.092-6.994.09-7.57.005-.357.018-.795.053-1.204.06-.709.129-.923.372-1.396.18-.342.564-.693.904-.828.368-.16.485-.343.495-.754zM97.095 41.6l-.084.102-2.453.008c-2.554 0-3.795.03-9.74.068-3.87.024-3.644.043-3.726-.184-.064-.142-.01-.467.047-.545a.9.9 0 0 1 .265-.142c.29-.14.7-.516.905-.828.176-.287.309-.66.39-1.01.08-.35.154-1.222.155-1.826-.008-.495.09-12.897.116-13.499.032-1.26-.213-2.242-.743-2.837-.185-.208-.59-.49-.762-.56-.173-.043-.214-.156-.213-.458.02-.245.023-.272.078-.322s.107-.074.26-.088c.1.009 1.011.005 2.024-.018 1.011.005 2.682-.016 3.745-.034 2.024-.018 2.278-.024 2.373.04.07.06.132.23.114.448-.02.219-.074.269-.312.386-.577.252-1.003.792-1.246 1.567-.073.269-.082.378-.143 1.086-.063.736-.09 1.063-.086 5.155-.002 2.388-.023 5.6-.05 7.107L88 37.962s4.3-.014 4.58-.045c.764-.071 1.513-.254 2.12-.559.896-.417 1.61-1.07 2.028-1.83.062-.131.149-.261.201-.284.105-.046.436-.072.532-.01.169.098.201-.284-.17 5.258l-.087 1.008-.085.103zm21.012-21.639s-.137.125-.322.22c-.45.235-.839.641-1.081 1.114-.245.501-.365 1.314-.374 2.302.01.77-.11 9.573-.134 10.45-.026.904-.302 2.06-.655 2.936a10.4 10.4 0 0 1-.833 1.466c-1.119 1.551-2.779 2.644-4.795 3.156-.776.208-1.621.328-2.634.35-2.31.103-4.392-.378-6.056-1.318-2.168-1.257-3.461-3.29-3.699-5.837-.054-.554-.065-.72-.022-2.995.02-1.124.035-3.374.05-5.02s.044-3.181.04-3.43c.036-1.616-.457-2.647-1.456-3.09-.244-.103-.264-.16-.264-.462.019-.218.019-.218.103-.32l.085-.103.91-.004c1.215-.005 2.935-.022 5.213-.045 1.974-.022 2.124-.01 2.195.051.07.062.132.232.113.45s-.074.268-.286.387c-.235.09-.56.336-.729.541-.475.536-.75 1.39-.761 2.406-.019.218-.015.465.006.522-.01.109-.019 3.183-.063 7.243-.046 2.907-.027 2.99.033 3.463.224 1.53 1.043 2.588 2.444 3.066.613.217 1.77.29 2.589.168 1.87-.278 3.1-1.655 3.274-3.7.028-.326.075-3.535.151-8.279-.001-.878.033-1.864.031-2.139.041-1.067-.082-1.709-.384-2.311-.216-.431-.613-.822-1.028-.995-.218-.101-.287-.19-.291-.437.019-.218.033-.382.163-.425.025.002 1.394-.045 3.037-.041 1.645-.023 3.416-.035 3.971-.015.532-.009 1.061.01 1.189-.007.175.015.2.017.269.105.091.118.088.447.026.58zM73.706 22.783c-.166-3.392-.152-3.253-.39-3.438-.073-.034-.168-.097-.218-.102s-1.466-.016-3.136.005c-1.646.023-5.388.03-8.273.056-3.517.027-5.313.037-5.393.085a.65.65 0 0 0-.354.299c-.057.078-.067.186-.106.65-.084.981-.387 6.31-.376 6.476-.014.163.118.394.261.489.071.06.172.07.322.082.452.04.612-.057.852-.503.238-.419.408-.624.737-.925a4.2 4.2 0 0 1 1.204-.775c.577-.252 1.148-.423 1.76-.48.33-.026 1.244-.057 1.267-.028 0 0 .022.331.017.688-.005 1.235-.048 7.96-.036 10.487.007 1.4.002 2.636-.012 2.8-.019.52-.253 1.186-.513 1.575-.17.206-.444.457-.654.549-.498.204-.535.338-.557 1.49-.033.381-.012.437.051.58.084.2.25.324.502.346.1.008 1.971.005 4.174-.025 2.81-.033 4.023-.038 4.101-.059.075.007.185-.094.215-.146.167-.178.201-.285.211-.998.027-.904-.014-1.017-.477-1.222-.755-.34-1.166-1.144-1.23-2.467.014-.164-.011-2.83-.007-5.85.013-7.55.01-7.798.034-7.796 0 0 .2.017.457-.016 1.314.004 2.69.48 3.51 1.236.257.242.578.627.703.94.196.374.29.464.616.492.376.033.587-.06.733-.294s.138-.73-.025-4.148zm-.353 3.238s-.406.02-.502-.044c-.025-.002-.114-.147-.177-.29-.633-1.18-1.855-1.972-3.552-2.228-.424-.064-.879-.075-1.51-.075-.176-.015-.176-.015-.186.094-.004.054-.005.357-.005.659-.028.327 0 2.06-.025 3.842-.043 10.87-.043 10.267.057 10.88.158 1.111.604 1.809 1.334 2.146.266.133.29.162.314.467-.019.218-.028.327-.16.398-.053.023-1.091.043-4.052.063-2.174.004-4.048.035-4.124.029-.225-.02-.294-.108-.295-.382 0-.303.032-.382.32-.495.157-.069.32-.192.484-.343.22-.2.302-.276.453-.565.21-.394.314-.714.41-1.255.063-.434.061-.709.074-1.75-.006-.523-.001-5.905.027-10.68l.008-3.048-.201-.018c-.584.033-1.066.046-1.45.095-1.92.274-3.251 1.066-3.917 2.354-.124.264-.204.312-.48.288-.2-.017-.226-.02-.294-.107-.068-.089-.066-.116-.052-.582.069-1.394.325-5.574.355-5.626.004-.054.084-.102.111-.128.053-.023 1.801-.064 6.126-.076 3.339-.015 7.033-.053 8.222-.06 1.19-.008 2.228-.029 2.278-.024.126.01.244.103.285.216.018.084.31 5.849.296 6.012-.012.137-.069.214-.174.26zM55.589 30.58c-.084-3.165-.915-5.872-2.415-7.841-1.32-1.707-3.051-2.762-5.308-3.286-.346-.085-2.026-.257-2.455-.266-.35-.03-1.113.014-1.622.052-2.137.146-3.872.628-5.256 1.442-2.264 1.343-3.664 3.529-4.258 6.636-.276 1.459-.472 3.749-.45 5.26.065 2.807.834 5.345 2.238 7.25 1.317 1.761 3.16 2.964 5.342 3.481 1.213.297 2.95.392 4.374.294 4.99-.394 8.438-3.474 9.444-8.44.253-1.187.393-3.124.366-4.581m-.476 3.2c-.443 2.817-1.4 4.85-3.014 6.276-1.75 1.551-4.168 2.331-7.331 2.361-.607.003-1.94-.084-2.462-.185-2.394-.398-4.25-1.464-5.666-3.234-1.508-1.887-2.352-4.431-2.402-7.4-.025-1.184.127-3.258.331-4.174.398-1.997 1.056-3.479 2.073-4.736a9.3 9.3 0 0 1 1.377-1.31c1.428-1.03 3.172-1.621 5.438-1.81.51-.039 1.425-.097 1.778-.094.48.013 1.933.166 2.36.203 1.318.25 2.37.67 3.398 1.363.43.285 1.02.775 1.346 1.105 1.766 1.827 2.8 4.525 2.952 7.778.055 1.13-.01 2.773-.171 3.775zM14.192 30.3c-1.224-.764-2.467-1.31-5.192-2.259-.64-.22-1.15-.456-1.508-.706-.312-.192-.64-.495-.775-.699-.065-.115-.15-.315-.145-.37s.462-.371.724-.486c.788-.344 1.73-.428 3.207-.246 1.075.148 1.695.284 2.357.533 1.028.39 1.692.915 2.09 1.58.243.406.362.498.768.478.2.018.281-.03.386-.076.213-.119.277-.278.378-.874l.095-.513-.063-.747a342 342 0 0 1-.258-2.906c-.1-1.19-.217-2.188-.213-2.242a.64.64 0 0 0-.35-.333c-.368-.141-1.63-.47-2.626-.638-.473-.095-2.629-.308-2.982-.311a2.5 2.5 0 0 0-.558.007c-1.163.01-2.464.144-3.424.418-1.913.495-3.487 1.457-4.347 2.647-.547.776-.863 1.518-1.127 2.84-.134.676-.17.81-.199 1.44-.067.79-.023 1.15.102 1.765.57 2.796 3.007 4.763 7.708 6.266 1.526.489 2.255.826 2.77 1.31.28.271.55.679.601.958.034.195-.478.563-1.129.781-.573.198-1.212.28-2.143.228-1.358-.09-2.603-.307-3.607-.696-1.225-.462-2.104-1.115-2.617-1.927-.2-.32-.368-.417-.697-.418-.329 0-.539.091-.656.273-.059.105-.096.24-.183.671l-.097.54.108 1.109c.35 3.298.485 4.682.528 4.768.041.114.155.261.25.324.24.158 1.971.61 3.14.847 1.491.293 3.349.453 4.542.392 2.662-.073 4.742-.745 6.366-2.006.949-.742 1.62-1.783 1.977-3.015.142-.482.297-1.403.358-2.111.232-2.726-.969-4.944-3.513-6.537zm3.198 6.674c-.192 1.66-.996 3.073-2.29 4.005-1.402 1.032-3.297 1.61-5.582 1.716-2.234.11-4.958-.263-7.2-.95-.32-.11-.617-.19-.664-.222-.05-.005-.094-.09-.114-.147-.018-.084-.214-1.94-.51-4.685-.106-1.135-.104-1.162.056-1.258.055-.05.156-.042.331-.027l.251.022.09.145c.154.26.589.792.823 1.005.99.854 2.484 1.422 4.402 1.752.573.104 1.682.145 2.086.152.687-.05 1.303-.162 1.75-.371.866-.365 1.232-.8 1.24-1.486.027-.602-.256-1.148-.82-1.636-.591-.49-1.319-.855-2.918-1.377a21 21 0 0 1-1.35-.473c-1.91-.714-3.306-1.548-4.359-2.545-.328-.303-.895-1.066-1.09-1.44a6.5 6.5 0 0 1-.553-1.53c-.3-1.509-.03-3.188.736-4.467.295-.497.551-.832.988-1.206 1.698-1.529 4.365-2.26 7.539-2.124.83.044.806.042 1.607.138 1.3.167 2.666.45 3.602.75.294.108.265-.142.524 3.038a74 74 0 0 1 .23 2.93c-.014.164-.121.237-.374.243-.281.03-.377-.032-.482-.289-.193-.4-.658-.88-1.111-1.194-.743-.476-1.824-.844-3.296-1.08-1.421-.232-2.665-.174-3.533.218q-.789.343-1.056.815c-.09.157-.094.211-.117.484-.023.272-.028.327.056.527.245.68.954 1.262 2.25 1.786.219.101.734.283 1.151.429 2.236.769 3.501 1.345 4.625 2.1 2.343 1.575 3.376 3.696 3.08 6.28z" fill="#fff"/>
      <path d="M33.737 40.787c.035-.71.076-2.08.135-3.064.069-1.697.076-1.778.012-1.92-.04-.114-.111-.175-.18-.264-.118-.092-.141-.122-.394-.116-.452-.039-.612.057-.823.45-.664 1.262-1.943 2.03-3.73 2.233-.409.047-4.46.11-4.48.054-.023-.03-.12-7.48-.146-13.386.003-.631.017-1.097.03-1.233.02-.245.148-.564.322-.823.147-.235.53-.586.82-.726.263-.115.373-.215.44-.402.006-.081.06-.407.117-.786.066-.763.072-.845-.165-1.03-.093-.09-.141-.122-.342-.14-.125-.01-2.047-.011-4.249.019-2.203.03-4.049.036-4.074.034-.025-.003-.105.045-.183.066-.212.12-.278.306-.38.9-.124.87-.095 1.119.192 1.308a.5.5 0 0 0 .194.1l.241.13c.72.447 1.094 1.412 1.098 2.84.001 2.06.093 12.53.136 13.797.031.827-.015 1.07-.285 1.569a2 2 0 0 1-.798.754c-.422.211-.484.343-.566 1.297-.046.546-.049.573.015.716a.8.8 0 0 0 .182.235c.094.09.144.095.342.14.126.01 3.693-.012 8.095-.045 6.199-.043 7.896-.089 7.974-.11.133-.07.24-.144.302-.276.091-.184.18-.918.225-2.342zm-.411 1.255c-.09.157.264.16-7.326.22-3.923.047-7.49.07-7.92.06-.48.013-.832-.017-.882-.021-.146-.068-.19-.154-.196-.374-.004-.248.035-.41.163-.426a2.2 2.2 0 0 0 .697-.461c.608-.607.902-1.68.82-3.088-.031-.826-.15-12.452-.126-13.63.028-1.81-.454-2.978-1.452-3.421-.121-.065-.267-.133-.29-.162a.5.5 0 0 1-.052-.28c-.006-.22-.004-.247.053-.324.03-.053.11-.1.137-.126.05.005 1.648-.05 4.026-.065 2.175-.005 4.048-.035 4.174-.025.125.011.25.022.274.051.07.061.132.231.113.45-.014.163-.016.19-.098.265-.055.05-.108.074-.108.074l-.265.141c-.56.337-.91.884-1.107 1.718-.127.593-.162 1.002-.138 4.272.047 6.265.102 11.542.15 11.573 0 0 .632 0 1.415.012 3.035-.013 3.316-.044 4.06-.172 1.596-.33 2.804-1.159 3.329-2.267a1 1 0 0 1 .174-.26q.078-.034.308-.055c.226.02.226.02.32.11l.09.117-.042.49c-.068 2.576-.223 5.584-.253 5.636z" fill="#fff"/>
      <path d="M156.185 40.437c-.685-.252-1.208-.654-1.846-1.45-.459-.561-.505-.62-2.706-4.16-2.271-3.6-3.408-5.4-3.763-5.953l-.245-.406 2.2-2.666a447 447 0 0 0 2.623-3.18c1.356-1.667 2.333-2.462 3.371-2.757.312-.083.364-.133.372-.517.012-.136.014-.163-.079-.254-.067-.088-.094-.09-.245-.103-.074-.006-1.721.016-3.617.018s-3.489.029-3.518.054c-.179.04-.251.28-.202.586.015.139.084.2.28.272.348.085.344.414.01 1.072-.3.55-.555.885-3.515 4.447-.988 1.206-1.831 2.204-1.831 2.204s-.015-.139-.003-.275c.014-.163.033-1.26.059-2.466.052-2.083.037-2.221.125-2.653.205-1.218.644-1.922 1.436-2.293.289-.14.32-.192.317-.467.016-.19-.003-.247-.073-.335-.067-.088-.094-.09-.244-.104-.098-.008-1.97-.005-4.172.025-2.201.003-4.024.038-4.05.036-.024-.002-.104.046-.157.069-.107.073-.11.1-.128.318-.028.327.02.359.334.523.972.468 1.41 1.55 1.36 3.33-.026.3-.042 1.37-.052 2.384-.11 5.126-.273 11.18-.306 11.864-.076.9-.169 1.386-.494 1.935-.27.498-.626.825-1.074 1.033-.263.115-.295.194-.298.524.005.247.073.336.274.353.125.01 7.636-.029 8.094-.045a.32.32 0 0 0 .261-.087c.081-.075.107-.073.128-.318.028-.328.004-.357-.286-.492-.851-.403-1.284-1.264-1.335-2.724-.008-.22.07-3.783.091-4.028.004-.055.145-.235.46-.647.253-.308.449-.538.475-.536 0 0 .067.089.135.204.065.115.779 1.248 1.555 2.523.8 1.277 1.465 2.35 1.461 2.405s.132.231.243.433c.423.668.719 1.352.76 1.74.047.361-.042.491-.331.63-.289.113-.318.166-.343.466-.017.19-.021.245.075.308q.067.088.217.101c.178.015 8.197-.035 8.3-.054.05.004.105-.045.16-.096.057-.077.083-.102.102-.32.028-.328-.018-.387-.336-.496zm.035.497-.012.136s-1.822.008-4.05.036c-2.2.002-4.048.035-4.098.031-.074-.006-.074-.006-.063-.142.012-.137.012-.137.172-.233.402-.267.535-.64.43-1.199-.072-.335-.243-.707-.645-1.346-.151-.287-.307-.52-.305-.548l-1.285-2.115c-1.757-2.815-2.113-3.395-2.139-3.397 0 0-.279.333-.618.743l-.621.743-.037 1.617c-.026.904-.048 1.753-.064 1.944-.036 1.288.117 2.18.495 2.789.223.349.573.68.966.824.147.068.17.07.159.206l-.012.136s-7.868.064-8.069.047l-.101-.009.012-.136s.012-.136.117-.182c.158-.069.45-.236.642-.412.354-.299.672-.766.844-1.3.17-.507.292-1.348.277-2.063.014-.163.011-1.015.033-1.865.045-2 .154-6.247.228-9.179.032-1.26.066-2.548.064-2.823.02-.822-.034-1.375-.216-1.913-.243-.707-.701-1.269-1.284-1.538l-.194-.1.011-.136.012-.136s1.872-.004 4.098-.032c2.252-.025 4.098-.031 4.098-.031s-.002.055.015.139l-.012.136-.158.069c-.526.229-.994.683-1.244 1.238-.248.528-.339 1.042-.416 1.941-.058.682-.145 5.534-.123 5.564 0 0 5.108-6.205 5.42-6.618.632-.879.889-1.544.716-1.86a.64.64 0 0 0-.355-.306c-.125-.01-.166-.123-.154-.26.005-.054.131-.071 3.447-.087 1.898-.03 3.49-.03 3.567-.023l.1.009-.023.272-.184.067c-.622.194-1.289.603-1.948 1.205-.466.427-.913.91-1.619 1.783-.31.385-1.549 1.871-2.706 3.281l-2.144 2.59 1.005 1.569c.557.872 1.869 2.962 2.914 4.645 1.07 1.684 2.072 3.28 2.228 3.514.406.584 1.023 1.351 1.325 1.652.356.305.88.652 1.223.791l.268.106-.011.136z" fill="#0F41F4"/>
      <path d="m156.248 40.784-.012.137-.012.136s-1.822.008-4.047.036c-2.2.002-4.048.036-4.098.031-.077-.006-.077-.006-.066-.143.012-.136.012-.136.172-.232.402-.268.535-.64.43-1.199-.072-.335-.243-.707-.642-1.345-.154-.288-.31-.521-.308-.549l-1.285-2.115c-1.757-2.815-2.113-3.395-2.136-3.397 0 0-.282.333-.621.743l-.621.743-.037 1.617c-.026.904-.048 1.753-.064 1.944-.033 1.287.117 2.18.495 2.788.223.35.573.681.966.825.147.067.17.07.159.206l-.012.136s-7.867.064-8.068.047l-.1-.009.011-.136s.012-.136.117-.182c.157-.07.45-.236.642-.412.354-.299.672-.766.844-1.3.17-.507.292-1.348.277-2.063.014-.164.011-1.015.033-1.865.045-2 .155-6.247.228-9.18.032-1.26.066-2.547.064-2.822.02-.822-.034-1.375-.216-1.913-.243-.707-.701-1.269-1.284-1.538l-.194-.1.012-.136.011-.136s1.871-.004 4.1-.032c2.252-.025 4.098-.03 4.098-.03s-.005.053.012.137l-.012.137-.158.068c-.523.23-.991.684-1.241 1.239-.248.528-.342 1.041-.419 1.941-.058.681-.145 5.534-.121 5.564 0 0 5.106-6.206 5.418-6.618.632-.88.892-1.543.716-1.86a.63.63 0 0 0-.352-.305c-.128-.011-.169-.125-.157-.261.005-.055.134-.07 3.447-.087 1.898-.03 3.493-.03 3.567-.023l.1.009-.023.272-.181.067c-.625.193-1.292.603-1.951 1.205-.466.427-.913.91-1.619 1.783-.31.385-1.549 1.871-2.706 3.281l-2.144 2.59 1.005 1.569c.557.872 1.872 2.962 2.914 4.644 1.073 1.685 2.072 3.281 2.231 3.515.403.584 1.02 1.35 1.325 1.652.353.305.88.652 1.22.791l.271.106z" fill="#fff"/>
      <path d="M135.561 34.786s-.091-.117-.295-.108c-.326-.028-.355.025-.566.419-.238.418-.437.676-.791.975-.764.648-1.994 1.146-3.323 1.306a9 9 0 0 1-2.127.037c-1.029-.089-1.647-.252-2.427-.594-2.141-.98-3.311-2.976-3.355-5.725-.005-.523.095-1.695.189-2.209.456-2.377 1.604-3.98 3.363-4.735.683-.298 1.249-.414 2.267-.491 1.043-.075 2.127-.037 2.898.112 1.766.344 3.033 1.195 3.588 2.396.084.2.18.262.433.257.226.02.306-.029.368-.16.032-.08.041-.19-.017-.99-.033-.498-.104-1.74-.166-2.788-.063-1.05-.139-1.935-.132-2.016-.036-.168-.084-.2-.451-.341a17 17 0 0 0-2.596-.69 29 29 0 0 0-2.656-.284c-1.565-.025-3.172.138-4.414.47-3.726.998-6.387 3.734-7.425 7.6-.338 1.288-.489 2.758-.461 4.216.16 5.23 3.248 9.04 8.235 10.155 2.035.45 4.568.394 7.09-.13.594-.141 1.964-.49 2.121-.56.185-.093.176.016.395-2.245a65 65 0 0 1 .321-2.883l.073-.844-.066-.116zm-.793 5.726s-.135.098-.703.242c-2.767.722-5.317.97-7.217.723-2.601-.333-4.765-1.344-6.39-3.049a9.2 9.2 0 0 1-1.534-2.164c-.63-1.207-1.02-2.56-1.175-4-.095-.97-.105-1.437-.007-2.582.093-1.09.118-1.39.339-2.195.271-1.103.626-2.006 1.187-2.946.295-.497.785-1.196 1.148-1.604.307-.33 1.159-1.136 1.536-1.405 2.02-1.446 4.563-2.216 7.391-2.165.251.022.554.02.632 0 .352.03 1.908.164 2.38.26 1.045.2 2.675.642 2.789.79 0 0 .034.195.043.387.009.193.08 1.435.171 2.734.089 1.325.147 2.429.145 2.456 0 0-.055.05-.131.044-.1-.009-.125-.011-.277-.299q-.885-1.642-3.297-2.26c-.371-.088-.545-.13-1.298-.195-.904-.078-1.18-.102-1.869-.023-2.908.298-4.939 1.88-5.797 4.525-.237.694-.299 1.128-.382 2.11-.068.79-.084.98-.044 1.396.075 1.49.454 2.675 1.151 3.696 1.282 1.868 3.626 2.839 6.422 2.668 1.933-.136 3.424-.721 4.393-1.709.222-.228.508-.615.629-.852.092-.184.119-.21.27-.196l.075.006-.025.3c-.042.49-.545 5.198-.552 5.28z" fill="#0F41F4"/>
      <path d="M134.751 40.5s-.135.1-.704.242c-2.767.723-5.317.97-7.217.724-2.601-.334-4.765-1.344-6.389-3.049a9.2 9.2 0 0 1-1.535-2.164c-.63-1.208-1.02-2.56-1.175-4-.095-.97-.105-1.438-.007-2.583.093-1.09.118-1.39.339-2.195.271-1.102.626-2.005 1.187-2.946.295-.496.785-1.195 1.148-1.603.307-.33 1.159-1.136 1.536-1.405 2.02-1.447 4.564-2.216 7.391-2.165.251.022.555.02.632 0 .352.03 1.908.164 2.38.26 1.045.2 2.676.642 2.79.79 0 0 .033.194.042.387s.08 1.435.171 2.733c.09 1.326.147 2.43.145 2.457 0 0-.055.05-.13.043-.101-.008-.126-.01-.278-.298q-.884-1.641-3.297-2.261c-.371-.087-.545-.13-1.298-.194-.903-.078-1.179-.102-1.869-.024-2.908.299-4.939 1.881-5.797 4.526-.236.694-.299 1.127-.382 2.109-.068.79-.084.981-.044 1.396.075 1.49.454 2.676 1.151 3.697 1.282 1.868 3.626 2.839 6.422 2.668 1.933-.136 3.424-.722 4.394-1.709.221-.228.507-.615.629-.852.091-.184.118-.21.269-.196l.076.006-.026.3c-.042.49-.545 5.198-.552 5.28z" fill="#fff"/>
      <path d="M118.08 19.385s-.066-.116-.269-.106c-.1-.009-.632 0-1.189.007-.531.01-2.327.02-3.971.015-1.645.024-3.012.043-3.037.04-.105.047-.169.206-.163.426-.021.246.073.336.292.437.415.173.811.564 1.027.995.303.603.422 1.272.384 2.312-.026.3-.032 1.26-.031 2.14-.051 4.745-.123 7.952-.151 8.279-.174 2.044-1.404 3.421-3.274 3.7-.844.119-2.001.047-2.59-.169-1.4-.477-2.22-1.536-2.443-3.066-.061-.472-.079-.556-.033-3.463.043-4.06.078-7.132.062-7.244a9 9 0 0 0-.006-.522c.011-1.015.286-1.87.762-2.405.169-.206.491-.425.729-.542.21-.092.265-.142.286-.387s-.018-.386-.113-.45c-.096-.062-.222-.073-2.196-.051-2.277.024-4.023.038-5.212.045l-.91.005-.085.102s-.085.102-.103.32c-.026.3.044.361.263.463 1 .443 1.468 1.472 1.456 3.09-.021.246-.026 1.783-.04 3.43-.014 1.646-.055 3.894-.05 5.02-.017 2.278-.031 2.442.023 2.995.237 2.547 1.53 4.58 3.698 5.838 1.664.94 3.75 1.394 6.057 1.318 1.04-.047 1.885-.167 2.634-.35 2.016-.512 3.677-1.605 4.795-3.156.259-.362.645-1.043.833-1.466a8.7 8.7 0 0 0 .655-2.937c.025-.876.145-9.68.135-10.45-.019-.963.126-1.774.373-2.302.243-.473.606-.881 1.081-1.115.16-.096.293-.167.323-.22.061-.131.037-.436-.027-.579zm-.398.515c-.893.39-1.426 1.305-1.554 2.804-.016.19-.042.793-.036 1.315.005.522-.051 2.961-.083 5.402-.057 4.224-.078 4.47-.134 5.124-.062.735-.145 1.113-.347 1.7-1.104 3.447-4.541 5.512-9.087 5.45-.582.005-1.707-.147-2.254-.249-3.849-.826-6.188-3.334-6.41-6.95-.007-.22-.002-1.758.012-3.404.097-8.531.096-7.928.055-8.343a5.2 5.2 0 0 0-.392-1.626c-.13-.259-.45-.643-.663-.826-.095-.063-.262-.188-.357-.25-.217-.13-.262-.188-.25-.324l.008-.11 3.921-.019c2.15-.007 3.971-.015 4.046-.008l.151.013-.01.109c-.011.136-.011.136-.249.253-.893.39-1.373 1.282-1.499 2.754-.019.218-.034.986-.046 1.726-.013.74-.037 2.798-.035 4.555-.047 4.692-.054 4.774-.009 5.134.199 2.104 1.548 3.484 3.624 3.745 2.378.287 4.31-.727 5.005-2.644.266-.746.308-1.237.334-3.322.02-.822.044-2.88.062-4.58s.034-3.347.039-3.704c.015-1.07-.059-1.68-.264-2.247-.222-.65-.611-1.123-1.191-1.448l-.266-.133.011-.136.012-.136c.025.002 7.818-.068 7.944-.057.125.01.15.013.146.067l-.012.137c-.005.054-.007.081-.217.173z" fill="#0F41F4"/>
      <path d="M117.681 19.899c-.893.39-1.426 1.305-1.554 2.804-.016.191-.042.793-.036 1.315.005.522-.051 2.961-.083 5.403-.057 4.223-.078 4.469-.134 5.123-.063.736-.145 1.113-.347 1.7-1.104 3.447-4.542 5.513-9.087 5.45-.582.005-1.707-.146-2.255-.249-3.848-.825-6.187-3.334-6.41-6.95a227 227 0 0 1 .013-3.404c.097-8.531.096-7.927.055-8.343a5.2 5.2 0 0 0-.392-1.626c-.13-.258-.45-.643-.663-.826-.095-.063-.262-.187-.357-.25-.217-.13-.263-.188-.25-.324l.008-.11 3.921-.019c2.15-.006 3.971-.014 4.046-.008l.151.013-.01.11c-.011.135-.011.135-.249.252-.893.39-1.374 1.282-1.499 2.754-.019.218-.034.986-.047 1.726s-.036 2.798-.034 4.555c-.047 4.692-.054 4.774-.009 5.135.199 2.104 1.548 3.483 3.624 3.744 2.378.288 4.31-.727 5.005-2.644.266-.746.308-1.237.334-3.321.02-.822.044-2.88.062-4.58.019-1.702.033-3.348.039-3.704.015-1.07-.059-1.68-.264-2.247-.222-.651-.612-1.124-1.191-1.448l-.266-.133.011-.137.012-.136c.025.002 7.818-.068 7.944-.057.125.01.15.013.146.067l-.012.137c-.005.054-.007.082-.217.173z" fill="#fff"/>
      <path d="M97.263 40.525c.37-5.515.34-5.161.17-5.258-.096-.063-.451-.039-.532.01-.05-.005-.139.152-.2.284-.394.763-1.108 1.415-2.028 1.83a7 7 0 0 1-2.121.559c-.28.03-4.555.047-4.58.045l.007-2.746a832 832 0 0 1 .05-7.108c.019-4.062.024-4.419.087-5.155.058-.681.07-.818.143-1.086.243-.775.668-1.315 1.246-1.567.238-.117.293-.167.311-.386.019-.218-.017-.386-.113-.449s-.35-.057-2.374-.04c-1.038.02-2.733.04-3.745.035-1.01-.005-1.921 0-2.024.018-.15-.013-.203.01-.26.087-.082.075-.085.103-.078.323-.026.3.043.388.213.458.174.042.577.351.762.56.505.593.775 1.577.743 2.837-.025.602-.124 13.006-.116 13.5 0 .605-.05 1.479-.156 1.827a3.5 3.5 0 0 1-.39 1.01c-.178.314-.592.718-.904.828a1.6 1.6 0 0 0-.265.142c-.083.075-.11.403-.047.545.082.227-.144.208 3.726.184 5.945-.037 7.187-.067 9.74-.067l2.454-.008.085-.103.084-.103.086-1.008zm-.38.9s-.914.032-2 .02c-1.089.017-4.578.018-7.766.046-3.189.027-5.792.023-5.792.023l.011-.137c.01-.109.01-.109.197-.23.74-.375 1.198-.995 1.432-1.963.11-.403.178-1.194.151-1.772-.013-.44.08-13.065.085-13.723.036-1.013-.12-1.85-.423-2.453a2.57 2.57 0 0 0-1.166-1.144c-.146-.068-.146-.068-.135-.204l.012-.136c.025.002 7.769-.072 7.894-.061l.176.015-.01.109c-.009.108-.011.136-.276.278-.795.426-1.207 1.104-1.407 2.267-.095.514-.1.569-.116 3.725-.007 1.263-.019 4.365-.062 6.942-.016 2.553-.029 4.776-.018 4.942l-.023.272.176.015c.075.007 1.089-.016 2.227-.027 2.15-.008 2.303-.022 3.125-.17.641-.11 1.42-.345 1.87-.581.817-.396 1.56-1.101 1.87-1.761.094-.212.12-.237.297-.222l.075.007-.033.381c-.018.218-.105 1.53-.201 2.949-.096 1.42-.168 2.567-.194 2.564z" fill="#0F41F4"/>
      <path d="M96.889 41.431s-.913.032-2 .02c-1.088.017-4.577.018-7.766.046-3.188.027-5.792.022-5.792.022l.012-.136c.01-.109.01-.109.197-.23.74-.375 1.197-.995 1.432-1.964.11-.402.177-1.193.15-1.772-.012-.44.08-13.064.085-13.722.036-1.013-.12-1.85-.422-2.453a2.57 2.57 0 0 0-1.167-1.144c-.145-.068-.145-.068-.134-.204l.012-.136c.025.002 7.768-.073 7.894-.062l.175.015-.009.11c-.01.108-.012.136-.277.278-.794.425-1.206 1.104-1.407 2.267-.094.514-.099.568-.116 3.725-.006 1.263-.018 4.365-.062 6.942-.015 2.553-.028 4.776-.017 4.941l-.023.273.175.015c.076.007 1.089-.016 2.228-.028 2.15-.007 2.303-.02 3.124-.17.642-.11 1.42-.344 1.87-.58.818-.397 1.56-1.101 1.87-1.761.094-.212.122-.237.297-.222l.075.006-.032.382c-.019.218-.105 1.529-.201 2.949s-.169 2.566-.194 2.564z" fill="#fff"/>
      <path d="M73.234 19.748s-.135-.204-.285-.217c-.05-.004-1.089.016-2.278.023-1.19.008-4.909.044-8.223.06-4.327.04-6.073.055-6.125.078-.05-.005-.108.073-.112.127-.032.08-.286 4.232-.354 5.627-.04.463-.04.463.051.58.069.089.094.091.295.108.276.024.355-.024.48-.288.668-1.315 1.975-2.109 3.917-2.354.383-.049.867-.09 1.45-.094l.2.017-.005 3.02c-.028 4.776-.035 10.185-.027 10.68.01 1.072.011 1.346-.074 1.751-.096.54-.202.889-.41 1.255-.15.262-.208.367-.453.565-.192.176-.327.274-.484.343-.29.14-.32.192-.32.494.001.275.07.363.295.383.075.006 1.947.003 4.124-.03 2.96-.02 3.998-.04 4.051-.062.107-.074.14-.153.16-.398 0-.303-.047-.334-.314-.467-.754-.34-1.175-1.035-1.333-2.147-.097-.64-.1-.009-.057-10.88.002-1.811.024-3.54.024-3.842.028-.327.004-.63.006-.658.007-.082.007-.082.185-.094.632 0 1.086.011 1.51.075 1.696.284 2.945 1.05 3.552 2.229.09.144.153.287.178.29.073.033.402.034.502.043.105-.046.162-.124.174-.26.014-.163-.28-5.9-.296-6.012zm-.109 6.004-.15-.013-.107-.229c-.125-.313-.56-.844-.843-1.088-.754-.642-1.733-1.028-3.282-1.244l-1.08-.093c-.278.003-.505.011-.53.009 0 0-.036 2.194-.044 9.69-.002 2.389-.006 4.503-.024 4.72 0 .88.07 1.545.204 2.05.213.76.643 1.346 1.275 1.648l.242.13-.012.137s-.011.136-.087.13c-.05-.005-1.848.033-3.998.04-4.25.018-3.973.042-3.957-.149.007-.082.034-.107.22-.2.264-.142.646-.467.845-.724.428-.567.653-1.427.691-2.467.023-.272.017-.493-.008-.495 0 0-.01-6.4.015-11.724.002-1.51.009-2.773.009-2.773-.025-.002-1.317.024-1.547.06-2.301.295-3.626 1.005-4.427 2.391l-.179.314-.25-.021.046-.545c.022-.85.278-5.331.278-5.331s2.86-.028 6.351-.057 7.187-.068 8.198-.063c2.1-.011 2.024-.018 2.022.01 0 0 .062 1.35.13 2.921.065 1.599.132 2.895.13 2.922l-.151-.013z" fill="#0F41F4"/>
      <path d="m73.266 25.748-.15-.013-.151-.013-.107-.23c-.125-.312-.56-.844-.843-1.088-.754-.641-1.732-1.028-3.281-1.244l-1.08-.093c-.278.004-.506.012-.531.01 0 0-.036 2.193-.044 9.69-.002 2.388-.005 4.502-.024 4.72 0 .88.07 1.544.204 2.05.213.76.644 1.346 1.275 1.648l.242.13-.012.137s-.011.136-.086.13c-.05-.005-1.85.033-3.999.04-4.25.018-3.973.042-3.957-.15.007-.08.035-.106.22-.2.265-.142.646-.466.845-.723.428-.568.653-1.427.691-2.467.024-.273.017-.493-.008-.495 0 0-.01-6.4.015-11.725.003-1.51.01-2.772.01-2.772-.026-.003-1.318.024-1.548.059-2.301.296-3.626 1.006-4.427 2.392l-.178.314-.251-.021.046-.546c.022-.849.278-5.33.278-5.33s2.86-.029 6.352-.058c3.491-.028 7.186-.067 8.197-.062 2.1-.012 2.024-.018 2.022.009 0 0 .062 1.351.13 2.922.066 1.598.132 2.895.13 2.922z" fill="#fff"/>
      <path d="M55.306 30.03c-.178-3.256-1.186-5.952-2.952-7.779-.323-.357-.916-.82-1.347-1.104-1.028-.693-2.08-1.113-3.398-1.364-.397-.089-1.878-.216-2.359-.203-.352-.03-1.267.028-1.778.094-2.266.19-4.01.78-5.439 1.81-.404.295-1.037.9-1.376 1.31-1.015 1.23-1.675 2.739-2.073 4.736-.18.919-.332 2.993-.331 4.173.05 2.97.867 5.54 2.402 7.402 1.419 1.742 3.274 2.808 5.665 3.234.523.1 1.858.16 2.462.184 3.163-.03 5.606-.807 7.332-2.361 1.616-1.454 2.596-3.456 3.014-6.276.161-1.002.226-2.644.17-3.775zm-.734 4.742c-.928 3.462-3.157 5.879-6.376 6.865-2.13.667-4.712.692-6.833.07-3.33-.973-5.638-3.561-6.483-7.286-.238-1.064-.347-2.144-.364-3.436.004-.631.15-2.349.25-2.917.299-1.43.668-2.496 1.293-3.596 1.877-3.325 5.3-4.925 9.825-4.618l.853.074c1.248.19 2.282.526 3.273 1.05 1.621.854 2.897 2.2 3.761 3.922.776 1.577 1.197 3.453 1.26 5.682.006.523.01.77-.072 1.724-.102 1.2-.132 1.554-.385 2.438z" fill="#0F41F4"/>
      <path d="M54.913 32.336c.081-.954.102-1.2.071-1.724-.062-2.23-.458-4.103-1.259-5.682-.84-1.72-2.14-3.068-3.761-3.921-.992-.525-2-.86-3.273-1.051-.276-.024-.65-.084-.853-.074-4.525-.307-7.949 1.293-9.826 4.618-.622 1.073-.991 2.14-1.293 3.596-.124.566-.27 2.284-.249 2.917.016 1.292.126 2.372.364 3.436.845 3.725 3.152 6.313 6.483 7.286 2.096.62 4.704.57 6.832-.07 3.222-1.014 5.449-3.403 6.376-6.865.225-.86.28-1.212.386-2.439zm-4.81 1.26c-.339 1.592-.948 2.803-1.8 3.608-.935.88-1.93 1.289-3.38 1.384-.509.038-1.387-.037-1.757-.152a4.54 4.54 0 0 1-2.343-1.574c-1.002-1.295-1.572-3.211-1.618-5.632-.02-.66.118-2.269.242-2.834.674-3.155 2.46-4.814 5.228-4.96l.853.074c.502.043.678.058.947.164 2.413.757 3.746 3.206 3.865 7.142.026.58-.123 2.324-.24 2.808z" fill="#fff"/>
      <path d="M50.346 30.767c-.143-3.94-1.45-6.413-3.865-7.143-.246-.076-.445-.12-.947-.164l-.853-.074c-2.766.119-4.528 1.807-5.228 4.96-.124.566-.261 2.174-.242 2.835.072 2.422.616 4.337 1.618 5.631.64.797 1.378 1.327 2.343 1.575.37.114 1.248.19 1.758.151 1.446-.067 2.467-.474 3.38-1.384.852-.805 1.461-2.016 1.799-3.607.092-.486.241-2.23.24-2.807zm-.77 3.695c-.75 2.27-2.227 3.57-4.317 3.775-.512.066-1.566-.025-2.013-.118-.867-.212-1.585-.686-2.157-1.394-.73-.915-1.228-2.193-1.445-3.804-.22-1.557-.153-3.83.166-5.204.483-2.1 1.524-3.328 3.284-3.808a7 7 0 0 1 1.358-.213c.15.013.331-.026.382-.022l1.38.119c2.457.541 3.756 2.795 3.877 6.704.057 1.406-.141 2.845-.488 3.94z" fill="#0F41F4"/>
      <path d="M50.068 30.528c-.146-3.912-1.446-6.166-3.877-6.705a12 12 0 0 0-1.381-.119 4 4 0 0 0-.381.022 5.6 5.6 0 0 0-1.358.213c-1.761.48-2.826 1.706-3.284 3.808-.32 1.374-.387 3.647-.166 5.204.241 1.613.714 2.89 1.445 3.804.594.738 1.29 1.182 2.156 1.394.445.12 1.502.184 2.013.118 2.09-.204 3.567-1.505 4.317-3.774.347-1.096.52-2.537.489-3.94zm-.493 2.813c-.578 2.916-2.103 4.487-4.565 4.605-.535.036-1.436-.069-1.828-.212-1.526-.489-2.51-1.7-3.025-3.666-.285-1.096-.381-2.34-.298-4.2.037-.738.21-1.574.469-2.239.454-1.169 1.201-1.928 2.197-2.337.628-.248 1.322-.38 2.182-.388l.753.065c.527.045.703.06.922.161.787.26 1.361.64 1.862 1.287.481.59.827 1.28 1.076 2.207.386 1.406.487 3.474.255 4.717" fill="#fff"/>
      <path d="M49.314 28.587c-.25-.928-.596-1.617-1.076-2.207a3.8 3.8 0 0 0-1.862-1.287c-.247-.076-.395-.116-.922-.161l-.753-.065c-.888.033-1.58.138-2.182.389-.996.408-1.744 1.168-2.197 2.337a7.6 7.6 0 0 0-.47 2.238c-.083 1.86-.012 3.102.299 4.2.517 1.94 1.526 3.152 3.025 3.666.417.145 1.296.221 1.827.212 2.438-.12 3.988-1.689 4.565-4.605.235-1.27.132-3.311-.254-4.717m-1.501 3.66s-.64.686-1.333 1.396c-1.051 1.062-1.298 1.288-1.403 1.334-.078.02-.256.033-.434.045-.276-.024-.327-.028-.422-.091-.144-.095-2.545-2.471-2.611-2.587-.112-.174-.125-.313-.06-1.076.054-.627.06-.709.12-.813.087-.13 2.497-2.586 2.631-2.684.16-.096.742-.101.91-.004.051.004.657.605 1.357 1.297 1.166 1.144 1.28 1.291 1.344 1.434.063.143.059.197-.002.906-.058.682-.065.763-.122.84z" fill="#0F41F4"/>
      <path d="M47.92 31.379c.06-.709.063-.736.002-.906-.04-.141-.178-.29-1.344-1.434-.7-.692-1.306-1.293-1.356-1.298-.169-.097-.753-.064-.91.004-.16.096-2.57 2.552-2.632 2.684-.06.105-.066.187-.12.814-.063.736-.077.9.06 1.076.091.118 2.467 2.491 2.61 2.586.097.063.147.068.423.091.2.018.354.004.434-.044.105-.046.351-.272 1.403-1.335.693-.709 1.3-1.316 1.333-1.395.06-.105.066-.187.122-.841zm-.282-.244s-2.414 2.51-2.55 2.608c-.08.048-.559.035-.631.001-.144-.095-2.495-2.467-2.516-2.523-.04-.114-.028-.552.029-.63.06-.104 2.439-2.508 2.519-2.556.025.003.155-.041.28-.03l.277.023c.05.005 2.428 2.351 2.567 2.5.046.06.056.527.022.634z" fill="#fff"/>
      <path d="M47.646 30.518c-.139-.15-2.517-2.496-2.568-2.5l-.276-.024c-.125-.011-.253.006-.28.03-.08.049-2.46 2.453-2.52 2.557-.057.077-.044.518-.028.63.02.056 2.397 2.43 2.515 2.523.07.06.552.047.632-.001.133-.071 2.517-2.53 2.549-2.609.034-.107.024-.574-.022-.633zm-.357.628c-.887.912-2.27 2.304-2.27 2.304l-.2-.018-.176-.015-1.17-1.117c-.628-.63-1.188-1.173-1.211-1.202-.046-.06-.066-.116-.055-.252l.014-.164 1.136-1.165c.636-.631 1.19-1.188 1.191-1.215.058-.078.361-.08.457-.016.05.004.583.572 1.212 1.203l1.166 1.144-.016.19c.011.166.01.194-.1.294z" fill="#0F41F4"/>
      <path d="M47.281 31.148c-.887.912-2.27 2.304-2.27 2.304l-.2-.018-.176-.015-1.17-1.117c-.628-.63-1.188-1.173-1.211-1.202-.045-.06-.066-.116-.054-.252l.014-.164 1.136-1.165c.635-.632 1.188-1.188 1.19-1.215.058-.078.361-.08.457-.016.05.004.583.572 1.212 1.203l1.166 1.144-.016.19c.011.166.01.193-.1.294z" fill="#fff"/>
      <path d="m33.609 36.403.041-.491-.116-.12c-.093-.09-.093-.09-.32-.11-.15-.013-.255.033-.307.056-.053.023-.115.155-.174.26-.525 1.108-1.733 1.937-3.329 2.267-.721.157-1 .16-4.06.172-.785.014-1.415-.012-1.415-.012-.023-.03-.1-5.336-.15-11.574-.024-3.27-.014-3.68.138-4.272.197-.834.547-1.38 1.107-1.717.133-.07.265-.142.265-.142s.078-.02.107-.073c.083-.075.085-.102.1-.266.018-.218-.018-.386-.114-.449-.025-.002-.149-.04-.274-.051s-1.997-.007-4.174.025c-2.378.015-3.973.042-4.026.065-.05-.004-.107.073-.137.125-.057.078-.06.105-.053.325-.012.137.03.25.052.28.023.029.141.122.29.162.974.44 1.48 1.61 1.452 3.42-.025 1.179.095 12.804.126 13.63.057 1.407-.212 2.482-.82 3.088-.195.203-.517.423-.697.462-.13.044-.17.205-.163.425s.05.307.196.374c.05.004.401.035.883.021.456-.015 3.998-.04 7.919-.06 7.59-.06 7.237-.062 7.326-.22.03-.052.185-3.059.279-5.632zm-.548 5.527-2.86.028c-1.568.003-5.112.054-7.869.064-2.759.037-5.034.033-5.034.033s.005-.055-.014-.139l.012-.136.16-.096c.95-.467 1.463-1.44 1.536-2.888.021-.245.026-.602.015-.768-.035-.772-.158-12.068-.15-13.633-.002-.577-.015-1.017-.065-1.323-.13-.836-.424-1.547-.868-1.97-.21-.21-.567-.46-.764-.533-.123-.038-.123-.038-.11-.174.01-.136.01-.136.086-.13.025.002 1.796-.01 3.92-.02 2.125-.008 3.946-.016 4.047-.008l.175.016-.009.108c-.01.11-.01.11-.249.254a2.4 2.4 0 0 0-1.11 1.167c-.189.423-.3.826-.357 1.507-.047.545-.054.93-.035 2.77.07 8.657.105 12.696.152 12.728.025.002 4.403-.033 4.683-.064 1.735-.18 2.938-.653 3.761-1.406a3.6 3.6 0 0 0 .796-1.03c.122-.236.176-.286.302-.276.075.007.075.007.082.227-.023.273-.228 5.335-.245 5.526l-.011.136z" fill="#0F41F4"/>
      <path d="m33.074 41.783-.011.136-2.86.028c-1.568.003-5.112.054-7.869.064-2.759.037-5.034.033-5.034.033s.004-.054-.014-.138l.012-.137.16-.096c.95-.467 1.463-1.439 1.536-2.888.02-.245.026-.602.015-.767-.035-.773-.158-12.069-.15-13.634-.002-.576-.015-1.017-.064-1.323-.132-.835-.425-1.547-.869-1.97-.21-.21-.567-.46-.764-.532-.123-.039-.123-.039-.111-.175s.012-.136.087-.13c.025.003 1.796-.01 3.92-.019 2.125-.01 3.946-.017 4.047-.008l.176.015-.01.109c-.01.109-.009.109-.25.253a2.4 2.4 0 0 0-1.11 1.167c-.188.424-.298.826-.357 1.508-.046.545-.053.929-.034 2.77.07 8.656.104 12.696.152 12.727.026.002 4.403-.033 4.683-.063 1.735-.18 2.939-.653 3.762-1.406.356-.327.585-.637.795-1.03.122-.237.177-.287.302-.276.075.006.075.006.082.226-.024.273-.228 5.336-.245 5.526z" fill="#fff"/>
      <path d="M14.287 30.684c-1.124-.756-2.39-1.331-4.625-2.1-.417-.146-.933-.328-1.152-.43-1.27-.52-2.004-1.105-2.25-1.785-.058-.198-.079-.255-.055-.527.023-.273.028-.327.117-.484q.267-.472 1.056-.816c.865-.365 2.086-.452 3.533-.217 1.471.236 2.552.604 3.295 1.08.454.314.919.793 1.112 1.194.13.259.228.294.481.289.228-.008.363-.106.375-.243.005-.054-.112-1.354-.23-2.93-.282-3.21-.23-2.93-.525-3.038-.935-.3-2.299-.61-3.602-.75-.8-.096-.776-.094-1.606-.138-3.174-.136-5.844.622-7.54 2.124-.438.401-.717.707-.987 1.205-.77 1.307-1.037 2.959-.736 4.468.089.447.334 1.127.552 1.53.22.376.788 1.139 1.091 1.44 1.05 1.024 2.448 1.83 4.36 2.544.366.142.98.36 1.35.474 1.598.522 2.328.86 2.916 1.377.565.488.847 1.034.82 1.636-.005.658-.396 1.091-1.238 1.486-.448.209-1.064.32-1.752.37-.406.02-1.512-.047-2.085-.151-1.946-.305-3.413-.898-4.402-1.753-.237-.185-.672-.717-.824-1.004l-.089-.145-.25-.022c-.202-.017-.277-.024-.332.027-.16.096-.162.123-.057 1.258.297 2.744.49 4.628.51 4.685-.004.054.066.115.114.147.05.004.342.139.664.222 2.242.687 4.966 1.059 7.2.95 2.285-.106 4.18-.684 5.583-1.716 1.296-.96 2.097-2.346 2.29-4.005.296-2.583-.737-4.704-3.08-6.279zm2.603 7.42c-.46 1.525-1.516 2.642-3.144 3.353-1.366.596-2.907.876-5.109.906-.657-.002-3.167-.218-3.915-.338-1.196-.212-2.855-.63-2.92-.745-.023-.03-.612-5.572-.584-5.598 0 0 .077-.02.127-.016.1.009.151.013.308.246.89 1.12 3.173 2.223 5.582 2.733.62.135 1.725.23 2.234.192.687-.05 1.28-.192 1.756-.426.105-.045.294-.194.431-.319.44-.402.625-.798.678-1.425.024-.272.03-.354-.049-.608-.163-.755-.668-1.348-1.56-1.864-.652-.359-1.286-.633-2.814-1.094-1.677-.501-2.821-1.012-3.922-1.738-1.318-.855-2.12-1.83-2.55-3.02-.265-.738-.36-1.405-.335-2.282.028-2.111 1.028-3.755 2.808-4.755 1.617-.877 3.88-1.314 6.474-1.2.856.046.88.048 1.657.142 1.124.152 2.22.357 3.057.62l.319.11.036.47c.029.25.125 1.494.246 2.74.096 1.244.208 2.297.206 2.325-.005.054-.007.081-.132.07-.126-.01-.15-.012-.194-.098-.53-.897-2.27-1.844-4.403-2.33-.669-.167-2.2-.299-2.71-.233-.715.076-1.309.217-1.681.432-.718.405-1.034 1.147-.875 1.957.14.726.865 1.42 2.057 1.962.559.268 1.125.454 2.304.858 1.008.333 1.473.51 2.276.882 2.818 1.341 4.308 3.144 4.537 5.498.078.858-.003 1.812-.217 2.536z" fill="#0F41F4"/>
      <path d="M16.916 38.117c-.46 1.526-1.515 2.643-3.144 3.354-1.366.596-2.906.876-5.109.906-.657-.002-3.167-.218-3.915-.338-1.196-.212-2.854-.63-2.92-.745-.023-.03-.612-5.572-.584-5.598 0 0 .078-.02.128-.016.1.008.15.013.307.246.891 1.12 3.173 2.223 5.583 2.733.62.135 1.724.23 2.233.192.687-.05 1.28-.192 1.756-.425.105-.046.295-.195.432-.32.439-.402.624-.798.678-1.425.023-.272.03-.354-.05-.608-.162-.755-.668-1.348-1.56-1.864-.651-.359-1.286-.633-2.814-1.094-1.676-.501-2.821-1.012-3.922-1.739-1.318-.854-2.12-1.83-2.549-3.02-.266-.737-.36-1.404-.336-2.28.029-2.113 1.029-3.756 2.808-4.756 1.617-.877 3.88-1.314 6.474-1.2.856.046.881.048 1.657.142 1.125.152 2.22.357 3.057.62l.32.11.035.47c.03.25.125 1.494.246 2.74.096 1.244.209 2.297.206 2.325-.004.054-.007.081-.132.07-.126-.01-.15-.012-.194-.098-.53-.897-2.27-1.844-4.403-2.33-.668-.167-2.2-.299-2.71-.233-.715.076-1.308.217-1.681.432-.717.405-1.033 1.147-.875 1.957.14.726.865 1.42 2.058 1.962.558.268 1.124.454 2.303.857 1.008.334 1.474.512 2.276.883 2.819 1.341 4.308 3.145 4.537 5.498.078.858-.003 1.812-.217 2.536z" fill="#fff"/>
    </g>
    <path d="M55.108 4.998s-.075-.041-.096-.066a.4.4 0 0 1-.03-.077c-.002-.026-.059-.305-.104-.617l-.094-.578c-.015-.025-.034-.01-.07.037-.024.028-.175.234-.338.454-.327.44-.35.474-.4.51-.026.021-.039.022-.084.025-.04.003-.046.003-.052.016l.002.02c.006.006.372.095.371.089q-.001 0 .005-.02c0-.014 0-.02-.041-.037q-.072-.026-.077-.074c0-.02.035-.081.114-.184l.066-.09s.458.11.465.11c0 0 .01.058.02.13.032.2.021.228-.077.227-.046.003-.052.003-.058.017l.001.02.24.057c.185.047.232.058.237.044.013-.014.005-.033-.002-.033zm-.374-.548s-.398-.093-.392-.1l.157-.213c.085-.11.15-.206.158-.2l.084.513zM31.01 8.4s-.007-.013-.059-.01c-.065.004-.085-.008-.147-.057-.028-.024-.217-.229-.434-.458a9 9 0 0 0-.399-.422c-.026.002-.024.028-.061.601-.02.322-.034.612-.04.632-.015.067-.027.093-.064.122-.025.015-.038.029-.03.035v.013h.007c.013-.001.345-.12.358-.128l-.001-.02c0-.006-.02-.011-.073-.008-.071.005-.084.005-.1-.046a4 4 0 0 1 .007-.302s.435-.158.442-.159c.006 0 .16.16.182.205a.13.13 0 0 1 .024.058c.001.026-.023.06-.068.076q-.027.01-.024.028.002.012.014.012c.006 0 .108-.04.23-.08.205-.071.224-.079.217-.098zm-.816-.2c-.102.04-.186.07-.192.071-.013.001-.009-.032.004-.256.01-.145.016-.263.016-.263s.014.006.196.21c.085.094.155.175.155.175l-.185.07zM20.934 14.73s-.007-.013-.06-.01c-.064.004-.085-.008-.146-.057-.028-.024-.217-.229-.434-.458a10 10 0 0 0-.399-.422c-.026.002-.024.028-.061.601-.02.323-.035.612-.04.632-.015.067-.027.094-.064.122q-.04.024-.03.035v.013h.006c.014-.001.346-.12.359-.128l-.001-.02c0-.006-.02-.011-.073-.008-.071.005-.084.005-.1-.046a4 4 0 0 1 .007-.302s.435-.158.442-.159c.006 0 .16.161.182.206a.13.13 0 0 1 .023.057c.002.026-.022.06-.067.076q-.027.01-.024.028.002.012.013.012c.007 0 .11-.04.231-.08.205-.071.224-.079.216-.098zm-.816-.2c-.103.04-.186.07-.192.071-.013.001-.009-.032.004-.256.01-.145.016-.263.016-.263s.014.006.196.21c.085.094.155.175.155.175l-.186.07zM42.905 4.481s-.002-.014-.05-.032c-.062-.022-.076-.04-.114-.11-.016-.034-.109-.297-.218-.593a9 9 0 0 0-.2-.545c-.025-.009-.034.016-.293.528-.145.288-.273.548-.285.565-.04.055-.062.075-.108.086q-.045.007-.041.02l-.005.012.006.003c.012.004.365.027.38.025l.006-.019c.003-.006-.014-.019-.063-.036-.068-.025-.08-.03-.074-.083a4 4 0 0 1 .126-.274s.461.027.468.029c.006.002.084.21.087.26a.13.13 0 0 1-.002.063c-.009.024-.044.046-.092.043q-.029-.001-.033.016-.002.01.008.017c.006.002.115.006.243.018.217.015.237.015.238-.005zm-.672-.505a4 4 0 0 1-.204-.011c-.013-.005.004-.033.104-.234.067-.129.119-.235.119-.235s.01.01.097.27l.074.222-.199-.009zM21.101 16.623s-.139-.031-.42-.125c-.373-.122-.414-.139-.408-.152l.04-.429c.018-.224.04-.416.039-.422 0-.007.013-.001.039-.003.02.006.207.066.407.133.207.066.374.12.374.127.007.007-.066.844-.071.864zM54.7 6.406a.32.32 0 0 1-.483-.206.4.4 0 0 1 .003-.158c0-.013 0-.013-.02-.005-.026.001-.026.001-.048.173-.017.159-.021.297-.005.355.002.026.01.052.004.052l-.266-.062s.006-.02.024-.041c.048-.062.153-.285.202-.445q.01-.034-.004-.053s-.02-.012-.02-.005a.5.5 0 0 1-.075.156.325.325 0 0 1-.527-.06c-.03-.05-.03-.057-.035-.135-.004-.079-.005-.085.018-.14.085-.208.35-.277.509-.129l.041.037-.014-.025a.37.37 0 0 1 .034-.41.28.28 0 0 1 .235-.106c.065-.004.078-.004.132.025.1.04.165.121.191.231a.37.37 0 0 1-.148.363c-.018.014-.031.022-.025.021a.329.329 0 0 1 .42.243c.035.13-.034.278-.148.35zM31.215 9.903c-.055.05-.1.065-.192.071-.078.005-.084.005-.165-.03-.013.002.01.04.052.102.044.07.093.12.127.144l.02.011-.032.002s-.07.038-.128.054c-.051.017-.096.032-.103.033 0 0 0-.013.011-.034a.8.8 0 0 0-.01-.261l-.002-.046-.024.034c-.045.114-.19.195-.316.184-.145-.018-.243-.13-.253-.286-.006-.105.02-.199.114-.381a3 3 0 0 0 .16-.384l.015-.067.041.03s.069.049.102.066c.034.018.142.07.236.11s.195.087.222.105c.116.071.186.152.212.256a.28.28 0 0 1-.094.274zM43.053 5.495c-.04.094-.1.176-.273.345-.05.048-.13.132-.178.188l-.092.097-.118-.104c-.069-.055-.173-.153-.242-.208-.145-.122-.2-.178-.244-.254-.096-.171-.062-.377.082-.477a.35.35 0 0 1 .278-.044c.08.015.156.083.186.14l.001.026.024-.034c.04-.101.16-.168.29-.17a.27.27 0 0 1 .174.05q.123.07.146.246c.005.085.008.13-.027.205zM60.76 14.782a1.4 1.4 0 0 1-.519.825q-.3.225-.67.258a1.35 1.35 0 0 1-1.456-1.012 1.1 1.1 0 0 1-.035-.254 1.2 1.2 0 0 1 .032-.428l.021-.08s-.032.002-.064.017a.4.4 0 0 1-.149.029s-.018.126-.035.271c-.144 1.065-.158 1.8-.042 2.095.015.032.023.057.017.058l-1.169-.282c-.006 0 0-.013.025-.028.081-.058.214-.243.32-.44.164-.305.37-.77.566-1.313a3 3 0 0 0 .139-.409s-.041-.03-.083-.074l-.083-.073-.01.066c-.03.14-.091.307-.175.444a2 2 0 0 1-.3.34 1.8 1.8 0 0 1-.36.212c-.152.062-.23.073-.419.085a1 1 0 0 1-.262-.004 1.36 1.36 0 0 1-1.134-.999c-.017-.07-.026-.103-.036-.266s-.012-.197.003-.27c.046-.317.193-.595.403-.798.234-.225.502-.346.814-.372a1.35 1.35 0 0 1 .54.052c.226.065.43.203.593.396.056.069.077.087.076.068l-.066-.108a1.7 1.7 0 0 1-.206-.492 2 2 0 0 1-.03-.49c.044-.35.152-.6.36-.829a1.356 1.356 0 0 1 2.181.252c.272.482.225 1.095-.132 1.576a1.6 1.6 0 0 1-.497.424c-.05.03-.082.051-.075.05.006 0 .05-.015.102-.032a1.2 1.2 0 0 1 .676-.074c.264.043.486.147.68.306.38.33.546.812.452 1.31zM51.04 11.538c-.176.424-.492.83-1.14 1.467-.61.602-.916.936-1.374 1.475l-.043.049-.118-.117a19 19 0 0 0-1.437-1.25c-.255-.207-.67-.562-.788-.692-.294-.303-.487-.573-.602-.842a1.7 1.7 0 0 1-.134-.588 1.6 1.6 0 0 1 .014-.408 1.45 1.45 0 0 1 1.264-1.265c.084-.012.228-.014.332-.014.315.013.636.125.87.3.178.134.308.336.366.542l.003.052.022-.067a1 1 0 0 1 .148-.37c.185-.28.532-.491.94-.569.122-.02.403-.038.502-.024.224.025.404.086.58.193.224.13.392.304.524.532.124.222.182.422.206.702.027.333-.01.578-.135.887zM30.919 17.305s-.349 3.806-.348 3.813c0 0-3.612-1.181-3.619-1.187-.006-.006.342-3.812.349-3.812a430 430 0 0 0 3.624 1.186zM40.04 15.472c-.199.078-.36.114-.589.121-.176.011-.255.003-.394-.034a1.1 1.1 0 0 1-.397-.173l-.061-.042.022.045c.052.101.184.336.257.45.276.455.515.722.736.8.04.01.047.017.034.024-.134.054-1.222.443-1.229.443 0 0 0-.013.012-.027.06-.089.102-.255.11-.452a6 6 0 0 0-.037-.595 19 19 0 0 0-.1-.558l-.004-.059-.022.06c-.106.4-.463.764-.942.95a1.4 1.4 0 0 1-.374.09c-.157.01-.255.015-.394-.015a1.4 1.4 0 0 1-1.09-1.028c-.137-.523-.032-1.061.362-1.886.064-.135.134-.27.338-.67.368-.718.593-1.328.661-1.805 0-.013.013-.014.096.06.048.043.137.11.185.146.198.139.423.276.693.416.257.135.411.204.902.417.571.247.76.333 1.024.488.542.307.872.667 1.01 1.111a1.39 1.39 0 0 1-.803 1.729z" fill="#fff"/>
    <path d="M54.735 4.446s-.399-.094-.392-.1c0 0 .072-.097.156-.214.085-.11.151-.206.158-.2l.084.514zM30.376 8.13l-.185.07c-.102.04-.185.071-.192.072-.013 0-.008-.033.004-.256l.017-.264s.013.006.196.211c.084.093.154.174.154.174zM20.083 14.713s-.34.23-.347.218c0 0-.02-.11-.04-.234-.021-.123-.04-.233-.042-.253-.002-.026-.002-.026.005-.026.02.012.423.282.423.288z" fill="#0F41F4"/>
    <path d="M142.81 5.38a5.15 5.15 0 0 0-2.378.745c-.586.386-1.059.9-1.407 1.554-.348.655-.511 1.312-.52 2.111a4.15 4.15 0 0 0 .488 2.024 3.95 3.95 0 0 0 1.26 1.472c.225.17.436.271.959.501.226.1.409.187.423.187 0 0-.043.084-.115.181-.145.223-.348.613-.406.809-.103.279-.133.475-.122.727.007.589.271 1.097.694 1.382.338.214.634.315.961.319.227.002.383-.024.625-.105.498-.163.856-.44 1.117-.913.101-.195 2.361-4.347 2.491-4.612.537-1.031.648-2.095.348-3.192a4.32 4.32 0 0 0-2.197-2.688 4.4 4.4 0 0 0-2.25-.502zm-2.273 1.56c.183.085.281.227.292.45-.001.127-.001.155-.03.225-.088.195-.259.291-.472.303l-.142-.002.014.057-.002.182c-.001.112-.03.168-.103.349a6 6 0 0 0-.25.796 2.4 2.4 0 0 0-.049.532c-.003.295-.004.365.037.505.081.352.219.69.484 1.085.391.607.84 1.005 1.292 1.192.339.13.522.272.577.427a.458.458 0 0 1-.176.503c-.086.055-.284.039-.553-.062-.72-.247-1.325-.744-1.841-1.535-.418-.621-.598-1.072-.676-1.634a4.2 4.2 0 0 1 .04-1.106c.105-.49.31-1.09.455-1.299a.52.52 0 0 1 .371-.234h.057s0-.028-.028-.07a.9.9 0 0 1 .005-.392.7.7 0 0 1 .23-.264.58.58 0 0 1 .482-.023zm2.856.858a2.03 2.03 0 0 1 1.434 1.095c.153.31.221.578.216.956-.004.35-.078.658-.237.965-.116.223-.231.32-.416.346a.39.39 0 0 1-.451-.23c-.042-.085-.056-.112-.054-.225.001-.14.016-.182.117-.363.102-.167.131-.279.119-.517-.011-.239-.024-.337-.121-.534a1.1 1.1 0 0 0-.505-.51c-.197-.1-.268-.116-.651-.12-.397-.004-.426-.005-.538-.132a.34.34 0 0 1-.11-.282c.003-.308.303-.487.828-.481.128.001.255.003.34.032zm-.198 1.203a.78.78 0 0 1 .589.568c.041.14.024.378-.006.504-.103.322-.388.515-.743.539-.256.01-.439-.061-.636-.246a.76.76 0 0 1-.16-.94 1.1 1.1 0 0 1 .374-.39.97.97 0 0 1 .596-.062zm-.723 5.025a.5.5 0 0 1 .238.24c.041.155.026.24-.178.671-.145.321-.204.517-.192.7-.002.153.026.196.096.323.083.127.126.155.338.158.242.002.354.06.438.229a.4.4 0 0 1 .04.197c-.002.196-.074.307-.246.39a1.03 1.03 0 0 1-.653.048c-.339-.088-.62-.357-.814-.752a1.2 1.2 0 0 1-.135-.604c.002-.182.002-.224.062-.434.074-.28.117-.391.19-.545.073-.153.203-.362.275-.46a.5.5 0 0 1 .526-.161zM152.12 4.717a5.14 5.14 0 0 0-2.377.744c-.586.386-1.06.9-1.408 1.554-.347.655-.511 1.312-.52 2.111a4.15 4.15 0 0 0 .488 2.024c.305.606.698 1.059 1.26 1.472.225.17.437.271.959.501.226.1.41.187.424.187 0 0-.044.084-.116.181-.144.223-.347.613-.406.809-.102.279-.133.475-.122.727.008.589.272 1.097.694 1.382.338.214.635.315.961.319.227.002.384-.024.626-.105.498-.163.855-.44 1.116-.913.102-.195 2.361-4.347 2.492-4.612.536-1.031.647-2.095.347-3.192a4.32 4.32 0 0 0-2.196-2.688 4.4 4.4 0 0 0-2.25-.502zm-2.273 1.558c.184.086.281.228.293.452-.001.126-.002.154-.031.224-.087.195-.258.291-.471.303l-.142-.002.013.057-.002.182c-.001.112-.03.168-.103.349-.102.265-.19.545-.25.796a2.4 2.4 0 0 0-.048.532c-.004.295-.004.365.036.505.082.352.22.69.485 1.085.39.607.84 1.005 1.291 1.192.339.13.522.272.577.427a.42.42 0 0 1-.003.266c-.043.112-.101.196-.173.237-.085.055-.284.039-.552-.062-.721-.247-1.325-.744-1.841-1.535-.419-.621-.598-1.072-.677-1.634a4.1 4.1 0 0 1 .041-1.106c.105-.49.31-1.09.454-1.299a.52.52 0 0 1 .372-.234h.056s.001-.028-.027-.07a.9.9 0 0 1 .004-.392.7.7 0 0 1 .23-.264.59.59 0 0 1 .483-.023zm2.856.86a2.04 2.04 0 0 1 1.435 1.094c.152.31.22.578.216.956-.004.35-.078.658-.238.965-.116.223-.23.32-.415.345a.386.386 0 0 1-.451-.229c-.042-.085-.056-.113-.055-.225.002-.14.017-.182.118-.363.101-.167.131-.279.119-.517-.011-.239-.024-.337-.122-.534a1.1 1.1 0 0 0-.505-.51c-.197-.1-.268-.116-.651-.12-.397-.004-.425-.005-.537-.132a.34.34 0 0 1-.111-.282c.004-.308.304-.487.829-.481.127.001.255.003.34.032zm-.198 1.202a.78.78 0 0 1 .59.568c.041.14.024.378-.006.504-.103.322-.389.515-.744.539-.255.01-.439-.061-.635-.246a.76.76 0 0 1-.16-.94c.072-.14.245-.32.373-.39a.97.97 0 0 1 .597-.063zm-.723 5.025a.5.5 0 0 1 .239.24c.04.155.025.24-.178.671-.146.321-.205.517-.192.7-.002.153.026.196.095.323.084.127.126.155.339.158.241.002.354.06.437.229a.36.36 0 0 1 .04.197c-.002.196-.074.307-.245.39a1.03 1.03 0 0 1-.653.048c-.34-.088-.62-.357-.814-.752a1.23 1.23 0 0 1-.136-.604c.003-.183.003-.224.062-.434a2.7 2.7 0 0 1 .191-.545c.072-.153.202-.362.274-.46a.51.51 0 0 1 .527-.162z" fill="#fff"/>
    <path d="M142.86 5.577a4.9 4.9 0 0 0-2.292.727 4.05 4.05 0 0 0-1.357 1.516c-.336.639-.493 1.28-.502 2.059a4.1 4.1 0 0 0 .47 1.974 3.85 3.85 0 0 0 1.215 1.436c.217.167.421.265.924.489.218.098.395.182.408.182 0 0-.041.082-.111.177-.139.217-.335.598-.392.789a1.7 1.7 0 0 0-.117.71c.007.574.261 1.069.669 1.347.217.139.448.237.666.294.123.03.41.032.561.007.164-.026.466-.118.604-.185.302-.147.592-.43.788-.784.098-.19 2.276-4.241 2.402-4.486.322-.639.479-1.239.486-1.881a4.3 4.3 0 0 0-.832-2.635 4.15 4.15 0 0 0-1.436-1.233 4.2 4.2 0 0 0-2.168-.49zm-2.192 1.534c.177.084.271.222.282.441-.001.123-.001.15-.029.219-.028.04-.07.108-.111.149a.53.53 0 0 1-.344.146l-.137-.001.013.055-.002.177c-.001.11-.029.164-.099.341a6 6 0 0 0-.241.777 2.4 2.4 0 0 0-.047.519c-.003.287-.004.355.035.493.079.342.212.672.467 1.058.376.592.81.98 1.245 1.162.327.127.503.266.556.417a.447.447 0 0 1-.169.49c-.166.108-.779-.09-1.24-.41-.407-.278-.772-.665-1.108-1.189-.404-.62-.563-1.004-.626-1.552a4.1 4.1 0 0 1 .04-1.08c.101-.477.299-1.063.438-1.266a.5.5 0 0 1 .358-.229h.055s0-.027-.027-.068a.9.9 0 0 1 .005-.383.7.7 0 0 1 .221-.257.56.56 0 0 1 .465-.022zm2.753.838c.6.116 1.116.519 1.383 1.068.147.303.212.563.208.933a2 2 0 0 1-.229.927c-.112.217-.222.326-.414.35a.37.37 0 0 1-.435-.223c-.04-.082-.054-.11-.052-.22.001-.136.015-.177.113-.354.097-.162.126-.271.115-.504s-.024-.329-.117-.521a1.08 1.08 0 0 0-.487-.498c-.19-.098-.259-.112-.628-.116-.383-.005-.41-.005-.518-.13a.33.33 0 0 1-.106-.274c.003-.3.292-.475.798-.47.123.002.246.003.328.032zm-.191 1.174c.286.071.503.279.568.553.04.137.023.37-.005.492-.1.314-.375.502-.717.526-.246.01-.423-.06-.613-.24a.75.75 0 0 1-.154-.918c.07-.135.236-.311.36-.378a.92.92 0 0 1 .575-.062zm-.684 4.901a.48.48 0 0 1 .23.235c.039.151.025.233-.171.655-.141.313-.198.504-.186.681-.002.15.025.192.092.316.081.124.122.152.327.154.232.003.341.058.421.223a.36.36 0 0 1 .039.192c-.002.192-.072.3-.237.38a1 1 0 0 1-.629.048c-.327-.085-.598-.348-.785-.733a1.2 1.2 0 0 1-.13-.59c.002-.177.002-.219.059-.423a2.7 2.7 0 0 1 .449-.98.48.48 0 0 1 .507-.158z" fill="#349606"/>
    <path d="M140.39 7.346c-.137.04-.207.203-.154.34s.285.14.396.004c.111-.162-.05-.397-.242-.344M139.913 8.142s-.055.027-.069.054c-.069.082-.238.49-.323.83a3.4 3.4 0 0 0-.133.833c-.02.602.084 1.068.392 1.618.389.702.875 1.24 1.391 1.547.218.126.626.295.735.296.055 0 .111-.108.084-.163s-.135-.125-.366-.223a2.5 2.5 0 0 1-.882-.612 4 4 0 0 1-.54-.69c-.403-.633-.535-1.045-.528-1.674.005-.478.092-.915.303-1.405.085-.218.099-.3.072-.354-.026-.055-.067-.056-.136-.043zM142.924 8.197s-.082.013-.137.026c-.192.039-.275.147-.194.244.041.041.013.041.341.045.287.003.424.018.615.102.394.155.705.514.823.967.026.082.025.164.023.355-.003.301-.018.383-.157.628-.098.176-.112.245-.072.313.027.055.054.07.122.07.082.001.151-.066.235-.23.224-.462.257-.995.071-1.448a1.5 1.5 0 0 0-.376-.565 1.57 1.57 0 0 0-.775-.46 2.6 2.6 0 0 0-.546-.047zM152.215 7.549s-.082.012-.137.026c-.192.038-.275.147-.194.244.041.04.013.04.341.044.287.004.424.019.615.103.394.155.705.514.823.966.026.083.025.165.023.356-.003.301-.018.383-.157.627-.098.177-.112.245-.072.314.027.055.054.07.122.07.082 0 .151-.067.235-.23.224-.462.258-.995.071-1.449a1.5 1.5 0 0 0-.376-.565 1.57 1.57 0 0 0-.775-.46 2.6 2.6 0 0 0-.546-.047z" fill="#fff"/>
    <path d="M142.927 9.374c-.109.013-.192.067-.288.161-.111.122-.153.217-.155.354a.42.42 0 0 0 .16.357.45.45 0 0 0 .368.155.53.53 0 0 0 .509-.31c.07-.19.019-.464-.117-.588a.6.6 0 0 0-.477-.129M152.203 8.726c-.11.012-.192.066-.289.16-.111.123-.153.218-.154.354a.42.42 0 0 0 .16.358.45.45 0 0 0 .367.154.53.53 0 0 0 .509-.309c.071-.19.019-.464-.116-.589a.6.6 0 0 0-.477-.128M142.32 14.292s-.152.135-.25.326c-.098.19-.14.313-.225.599-.114.409-.076.655.139 1 .188.303.46.456.72.432.205-.025.301-.079.302-.175s-.039-.123-.231-.125c-.15-.002-.177-.002-.259-.058-.149-.07-.271-.222-.35-.428-.027-.082-.04-.11-.038-.328.003-.301.032-.383.228-.818.155-.354.169-.381.114-.423-.054-.041-.081-.042-.15-.002" fill="#fff"/>
    <path d="M152.156 4.926a4.9 4.9 0 0 0-2.291.726 4.05 4.05 0 0 0-1.357 1.516c-.336.64-.493 1.28-.502 2.06a4.1 4.1 0 0 0 .47 1.974 3.84 3.84 0 0 0 1.215 1.436c.216.166.421.264.924.489.218.098.394.182.408.182 0 0-.042.081-.111.176-.139.218-.335.598-.392.789a1.7 1.7 0 0 0-.117.71c.007.574.261 1.07.668 1.347.218.14.449.238.667.295.123.029.41.032.561.006a2.8 2.8 0 0 0 .603-.184c.303-.148.593-.431.789-.785.097-.176 2.29-4.268 2.416-4.513a4.05 4.05 0 0 0 .486-1.867 4.33 4.33 0 0 0-.832-2.635 4.2 4.2 0 0 0-1.436-1.233 4.2 4.2 0 0 0-2.169-.49m-2.205 1.534c.177.084.271.222.282.44-.001.124-.001.151-.029.219-.085.19-.25.284-.455.296l-.137-.002.013.055-.002.178c-.001.11-.029.163-.099.34a6 6 0 0 0-.241.777 2.4 2.4 0 0 0-.047.52c-.003.286-.004.355.035.492.079.343.212.672.467 1.058.376.592.81.98 1.245 1.163.327.126.503.265.556.416a.447.447 0 0 1-.169.49c-.166.108-.779-.09-1.24-.41-.407-.278-.772-.665-1.108-1.188-.403-.62-.563-1.005-.625-1.552a4 4 0 0 1 .039-1.08c.101-.478.299-1.064.438-1.267a.5.5 0 0 1 .358-.229l.055.001s0-.027-.027-.069a.9.9 0 0 1 .005-.383.7.7 0 0 1 .221-.257.56.56 0 0 1 .465-.022zm2.767.824c.6.116 1.115.518 1.383 1.068.147.303.212.563.208.932a2.05 2.05 0 0 1-.229.941c-.112.218-.223.312-.401.338a.37.37 0 0 1-.435-.224.38.38 0 0 1-.052-.22c.002-.136.016-.177.113-.354.098-.163.127-.272.115-.504-.011-.233-.023-.329-.117-.521q-.18-.351-.486-.498c-.191-.098-.259-.112-.628-.116-.383-.005-.41-.005-.518-.13a.34.34 0 0 1-.107-.274c.004-.3.293-.475.799-.47.123.002.246.003.327.032zm-.191 1.174c.286.071.503.279.568.553.039.137.023.37-.005.492-.1.314-.375.502-.717.525-.247.011-.424-.059-.613-.239a.75.75 0 0 1-.154-.918c.07-.136.236-.312.36-.379a.92.92 0 0 1 .575-.061zm-.698 4.9a.48.48 0 0 1 .23.236c.04.15.025.233-.171.654-.141.313-.197.504-.186.682-.001.15.025.192.092.316.081.123.122.151.327.154.232.002.341.058.421.223a.36.36 0 0 1 .039.192c-.002.191-.072.3-.237.38a1 1 0 0 1-.629.048c-.327-.086-.598-.349-.785-.734a1.2 1.2 0 0 1-.13-.59c.002-.177.002-.218.059-.422a2.7 2.7 0 0 1 .449-.98.49.49 0 0 1 .508-.158z" fill="#349606"/>
    <path d="M149.685 6.701c-.137.04-.208.203-.154.34.053.138.285.14.396.005.111-.163-.05-.397-.242-.345M149.21 7.484s-.055.027-.069.054c-.07.081-.238.49-.324.83a3.5 3.5 0 0 0-.133.833c-.035.724.137 1.246.634 2.004.485.73 1.027 1.173 1.68 1.4.259.085.287.085.302-.052 0-.055.001-.068-.04-.11-.068-.055-.177-.111-.367-.195-.286-.113-.557-.307-.828-.584a4.3 4.3 0 0 1-.552-.703c-.403-.634-.536-1.046-.529-1.675a3.5 3.5 0 0 1 .303-1.405c.085-.217.099-.3.073-.354-.027-.055-.068-.056-.137-.043zM151.617 13.64s-.152.135-.25.325-.14.313-.226.6c-.114.409-.075.655.14 1 .188.302.459.456.72.431.205-.025.301-.078.302-.174s-.039-.123-.231-.126c-.15-.001-.177-.002-.259-.057-.15-.07-.271-.222-.351-.428-.026-.082-.039-.11-.037-.329.003-.3.032-.382.228-.818.154-.353.168-.38.114-.422s-.082-.042-.15-.002M133.501 6.045a5.14 5.14 0 0 0-2.377.744c-.586.386-1.06.9-1.408 1.554-.348.655-.511 1.312-.52 2.111a4.15 4.15 0 0 0 .488 2.024 3.95 3.95 0 0 0 1.26 1.472c.225.17.437.271.959.501.226.101.409.187.424.187 0 0-.044.084-.116.181-.144.223-.347.613-.406.809-.103.279-.133.475-.122.727.008.59.272 1.097.694 1.382.338.214.635.315.961.319.227.002.383-.024.625-.105.499-.163.856-.44 1.117-.913.102-.195 2.361-4.347 2.492-4.612.536-1.031.647-2.095.347-3.192a4.32 4.32 0 0 0-2.197-2.688 4.4 4.4 0 0 0-2.249-.502zm-2.273 1.558c.184.086.281.228.293.452-.002.126-.002.154-.031.224-.087.195-.258.291-.471.303l-.142-.001.013.056-.002.182c-.001.112-.03.168-.103.35a6 6 0 0 0-.25.795 2.4 2.4 0 0 0-.048.532c-.004.295-.005.365.036.505.082.352.22.69.485 1.085.39.607.84 1.005 1.291 1.192.339.13.522.272.577.427a.43.43 0 0 1-.003.267c-.044.111-.101.195-.173.236-.085.055-.284.039-.552-.062-.721-.247-1.325-.744-1.841-1.535-.419-.621-.598-1.072-.677-1.634a4.1 4.1 0 0 1 .041-1.106c.104-.49.31-1.09.454-1.299a.52.52 0 0 1 .372-.234h.056s.001-.027-.027-.07a.9.9 0 0 1 .004-.392.7.7 0 0 1 .23-.264.59.59 0 0 1 .483-.023zm2.856.86a2.03 2.03 0 0 1 1.434 1.095c.153.31.221.577.217.955-.004.35-.079.658-.238.965-.116.223-.231.32-.415.346a.39.39 0 0 1-.452-.23c-.041-.084-.055-.112-.054-.225.002-.14.016-.182.118-.363.101-.167.13-.279.119-.517-.011-.239-.025-.337-.122-.534a1.1 1.1 0 0 0-.505-.51c-.197-.1-.268-.116-.651-.12-.397-.004-.425-.005-.537-.132a.34.34 0 0 1-.111-.282c.004-.308.304-.487.828-.48.128 0 .256.002.341.031zm-.198 1.203a.78.78 0 0 1 .589.567c.041.14.025.378-.005.504-.103.322-.389.515-.744.539-.255.01-.439-.061-.635-.246a.76.76 0 0 1-.16-.94c.072-.14.245-.32.373-.389a.97.97 0 0 1 .597-.063zm-.723 5.024a.5.5 0 0 1 .238.24c.041.155.026.24-.177.672-.146.32-.205.516-.193.698-.001.154.027.197.096.324.084.127.126.155.339.158.241.002.354.06.437.229a.37.37 0 0 1 .04.197c-.002.196-.074.307-.245.39a1.03 1.03 0 0 1-.653.048c-.34-.088-.62-.357-.814-.752a1.2 1.2 0 0 1-.136-.604c.002-.182.003-.224.062-.434.074-.28.118-.391.191-.545.072-.153.202-.362.274-.46a.51.51 0 0 1 .527-.161z" fill="#fff"/>
    <path d="M133.559 6.232a4.9 4.9 0 0 0-2.292.727 4.05 4.05 0 0 0-1.357 1.516c-.335.639-.493 1.28-.502 2.06a4.1 4.1 0 0 0 .47 1.973 3.85 3.85 0 0 0 1.215 1.436c.217.167.421.265.924.49.218.097.395.181.409.181 0 0-.042.082-.112.177-.139.217-.335.598-.392.789a1.7 1.7 0 0 0-.117.71c.007.574.262 1.069.669 1.347.326.209.612.308.926.311.219.003.37-.023.603-.102.48-.16.825-.429 1.076-.89.098-.191 2.277-4.242 2.403-4.5.517-1.006.624-2.044.335-3.114a4.2 4.2 0 0 0-2.117-2.622 4.2 4.2 0 0 0-2.169-.49zm-2.192 1.52c.177.085.272.223.283.442-.002.123-.002.15-.03.218-.084.19-.249.284-.455.296l-.136-.002.013.055-.002.178c-.002.11-.03.164-.1.34a6 6 0 0 0-.241.777 2.4 2.4 0 0 0-.047.52c-.003.287-.004.355.036.492.078.343.211.673.466 1.058.377.593.81.98 1.245 1.163.327.127.503.265.556.416a.4.4 0 0 1-.003.26c-.042.109-.097.19-.166.23-.083.054-.274.039-.533-.06-.694-.24-1.277-.725-1.774-1.497-.404-.606-.577-1.046-.653-1.593a4 4 0 0 1 .04-1.08c.101-.478.299-1.063.438-1.267a.5.5 0 0 1 .358-.228h.055s0-.027-.027-.068a.9.9 0 0 1 .004-.383.7.7 0 0 1 .222-.258.56.56 0 0 1 .465-.022zm2.753.839a1.96 1.96 0 0 1 1.383 1.068c.147.302.212.563.208.932a2 2 0 0 1-.229.941c-.112.217-.222.312-.4.337a.37.37 0 0 1-.435-.223c-.04-.083-.054-.11-.053-.22.002-.136.016-.177.114-.354.097-.163.126-.272.115-.505s-.024-.328-.117-.52a1.07 1.07 0 0 0-.487-.498c-.19-.098-.259-.113-.628-.117-.383-.004-.41-.004-.518-.129a.33.33 0 0 1-.106-.274c.003-.301.292-.476.798-.47.123.002.246.003.328.031zm-.191 1.173a.76.76 0 0 1 .569.554c.039.137.023.369-.006.492-.099.313-.375.502-.717.525-.246.011-.423-.06-.613-.24a.75.75 0 0 1-.153-.917c.069-.136.235-.312.359-.379a.92.92 0 0 1 .575-.062zm-.697 4.902a.48.48 0 0 1 .23.235c.039.15.024.232-.172.654-.14.313-.197.504-.185.682-.002.15.025.191.092.315.081.124.121.152.326.154.233.003.342.059.422.224a.36.36 0 0 1 .039.192c-.002.191-.072.3-.237.38a1 1 0 0 1-.63.047c-.327-.085-.597-.348-.784-.733a1.2 1.2 0 0 1-.131-.59c.002-.177.003-.218.06-.423a2.6 2.6 0 0 1 .184-.53c.07-.15.195-.354.264-.45a.49.49 0 0 1 .508-.158z" fill="#349606"/>
    <path d="M131.026 7.997c-.137.039-.207.202-.154.34.04.096.176.138.3.071.234-.12.115-.49-.145-.425zM130.538 8.797s-.055.026-.069.053c-.07.082-.238.49-.324.83a3.4 3.4 0 0 0-.132.834c-.036.724.136 1.245.634 1.99.336.51.728.896 1.122 1.147.217.14.653.308.762.31.055 0 .111-.109.084-.164s-.149-.125-.299-.195a2.6 2.6 0 0 1-.936-.625 4.3 4.3 0 0 1-.553-.704c-.403-.633-.535-1.045-.528-1.674.005-.479.092-.915.303-1.405.084-.218.099-.3.072-.355s-.068-.055-.136-.042M133.62 8.848s-.083.012-.138.025c-.191.04-.275.148-.194.244.041.042.013.041.342.045.287.003.423.019.614.103.395.155.705.514.823.966.027.082.026.165.023.356-.003.3-.017.383-.157.627-.098.177-.112.245-.072.314.027.055.054.069.122.07.11 0 .221-.148.32-.448.169-.477.134-.97-.094-1.396a1.77 1.77 0 0 0-1.07-.86 2.7 2.7 0 0 0-.547-.047z" fill="#fff"/>
    <path d="M133.623 10.033c-.11.012-.192.066-.289.16-.111.123-.153.218-.155.354a.42.42 0 0 0 .161.358c.121.11.217.152.353.154.219.002.398-.091.482-.268a.4.4 0 0 0 .057-.245c.002-.137.002-.164-.038-.247-.093-.206-.338-.318-.571-.28zM133.021 14.95c-.069.027-.138.122-.236.312-.112.204-.154.327-.239.613-.114.409-.076.656.139 1 .202.303.46.456.72.432.205-.025.301-.079.303-.174.001-.096-.04-.124-.232-.126-.15-.002-.177-.002-.259-.058-.149-.07-.271-.222-.35-.428-.027-.082-.04-.11-.038-.328.004-.301.032-.383.228-.818.154-.354.168-.367.114-.423-.04-.041-.081-.055-.15-.015z" fill="#fff"/>
  </g>
  <defs>
    <clipPath id="a">
      <path d="M0 0h158v53H0z" fill="#fff"/>
    </clipPath>
    <filter color-interpolation-filters="sRGB" filterUnits="userSpaceOnUse" height="31.402" id="b" width="162.633" x="-2.602" y="18.639">
      <feFlood flood-opacity="0" result="BackgroundImageFix"/>
      <feColorMatrix in="SourceAlpha" result="hardAlpha" values="0 0 0 0 0 0 0 0 0 0 0 0 0 0 0 0 0 0 127 0"/>
      <feOffset dy="3"/>
      <feGaussianBlur stdDeviation="1.5"/>
      <feComposite in2="hardAlpha" operator="out"/>
      <feColorMatrix values="0 0 0 0 0 0 0 0 0 0 0 0 0 0 0 0 0 0 0.5 0"/>
      <feBlend in2="BackgroundImageFix" result="effect1_dropShadow_3102_2375"/>
      <feBlend in="SourceGraphic" in2="effect1_dropShadow_3102_2375" result="shape"/>
    </filter>
  </defs>
</svg>